<svg id="レイヤー_1" data-name="レイヤー 1" xmlns="http://www.w3.org/2000/svg" viewBox="0 0 558.07 83.62"><defs><style>.cls-1{fill:#fff;}.cls-2{fill:#595757;}.cls-3{fill:#d94f1d;}</style></defs><rect class="cls-1" width="558.07" height="83.62"/><rect class="cls-2" x="407.75" width="150.32" height="83.62"/><path class="cls-3" d="M198,49.45a13.21,13.21,0,0,0-4.77-4A15.7,15.7,0,0,0,186,44a17.07,17.07,0,0,0-6.75,1.29,15.42,15.42,0,0,0-5.22,3.56,16.49,16.49,0,0,0-3.41,5.42,18.93,18.93,0,0,0-1.22,6.87,20.29,20.29,0,0,0,.9,5.94,15,15,0,0,0,2.83,5.28,14.39,14.39,0,0,0,5.11,3.79A18.69,18.69,0,0,0,186,77.57a26.27,26.27,0,0,0,3-.24,16,16,0,0,0,4.09-1.12,14.92,14.92,0,0,0,4.22-2.71,12.9,12.9,0,0,0,3.09-4.36h-6.76a7.93,7.93,0,0,1-3,2.76A9.54,9.54,0,0,1,186,73a9.74,9.74,0,0,1-5.37-1.29,8.69,8.69,0,0,1-2.92-3,9.5,9.5,0,0,1-1.17-3.48c-.14-1.15-.23-2-.27-2.64l0-.46h25.46a31.45,31.45,0,0,0-1-6.75A17.78,17.78,0,0,0,198,49.45Zm-21.7,8.77,0-.47a10,10,0,0,1,2.92-6.84A9.65,9.65,0,0,1,186,48.52a8.2,8.2,0,0,1,4.55,1.13,8.34,8.34,0,0,1,2.61,2.65h0a10,10,0,0,1,1.24,3.09c.2,1,.35,1.76.44,2.32l.09.51Z"/><path class="cls-3" d="M75.67,34.47H69.14V44.92H63.31V48.8h5.83V69.45a13,13,0,0,0,.43,3.65A4.6,4.6,0,0,0,71,75.37a6.16,6.16,0,0,0,2.76,1.26,22.18,22.18,0,0,0,4.55.4c.8,0,1.63,0,2.45-.1l2.07-.2V72.06H80.11a5.32,5.32,0,0,1-2.52-.49,3.2,3.2,0,0,1-1.36-1.34,4.29,4.29,0,0,1-.49-1.69c0-.55-.07-1.09-.07-1.6V48.8h7.12V44.92H75.67Z"/><path class="cls-3" d="M106.17,73a9.58,9.58,0,0,1-3.24-.57,7.27,7.27,0,0,1-2.92-2,10.46,10.46,0,0,1-2.09-3.68,17,17,0,0,1-.81-5.67c0-.61,0-1.59.14-2.92a13.4,13.4,0,0,1,1-4.2,9.9,9.9,0,0,1,2.8-3.8,8.28,8.28,0,0,1,5.51-1.67,7.76,7.76,0,0,1,5.06,1.63,7.51,7.51,0,0,1,2.49,4.41H121c-.79-3.58-2.39-6.25-4.77-7.92A16.37,16.37,0,0,0,106.57,44a16.94,16.94,0,0,0-7.18,1.42,14.92,14.92,0,0,0-5.08,3.75,16.35,16.35,0,0,0-3,5.35,20.8,20.8,0,0,0,.32,13.84,15,15,0,0,0,3.56,5.21,14.08,14.08,0,0,0,5.07,3,18.2,18.2,0,0,0,5.94,1,17.58,17.58,0,0,0,5.66-.89,14.92,14.92,0,0,0,4.58-2.51,12.94,12.94,0,0,0,3.18-3.81A13.28,13.28,0,0,0,121.07,66h-6.48a9.68,9.68,0,0,1-2.7,5A8.06,8.06,0,0,1,106.17,73Z"/><rect class="cls-3" x="308.38" y="27.1" width="3.72" height="3.72"/><path class="cls-3" d="M179.41,54.63c-.19.43-.35.84-.49,1.22h13.37a9.61,9.61,0,0,0-2-3.44A5.58,5.58,0,0,0,186,50.89a8.58,8.58,0,0,0-3.39.57,6.1,6.1,0,0,0-2.06,1.39A6.49,6.49,0,0,0,179.41,54.63Z"/><rect class="cls-3" x="308.38" y="34.55" width="3.72" height="3.72"/><polygon class="cls-3" points="17.38 32.02 10.85 32.02 10.85 76.62 17.38 76.62 17.38 65.88 22.78 60.69 32.71 76.62 40.82 76.62 27.36 56.23 38.74 44.92 31.3 44.92 17.38 59.12 17.38 32.02"/><rect class="cls-3" x="315.82" y="34.55" width="3.72" height="3.72"/><rect class="cls-3" x="49.12" y="32.02" width="6.53" height="5.37"/><path class="cls-3" d="M149.39,44a12,12,0,0,0-6.29,1.6,21,21,0,0,0-5,4.29l-.77.87V32h-6.52v44.6h6.52V60.29a19.82,19.82,0,0,1,.46-4.4,9.56,9.56,0,0,1,1.49-3.48A6.8,6.8,0,0,1,142,50.13a9.69,9.69,0,0,1,4.15-.79,7.6,7.6,0,0,1,4.21,1,6.29,6.29,0,0,1,2.19,2.33,7.2,7.2,0,0,1,.79,2.68c.07.86.1,1.5.1,2V76.62H160V54.52c0-3.34-.92-6-2.72-7.8S152.78,44,149.39,44Z"/><rect class="cls-3" x="315.82" y="27.1" width="3.72" height="3.72"/><rect class="cls-3" x="49.12" y="44.92" width="6.53" height="31.7"/><path class="cls-3" d="M229.87,44a12,12,0,0,0-6.29,1.6,21.39,21.39,0,0,0-5.05,4.29l-.76.87V44.92h-6.53v31.7h6.53V60.29a19.84,19.84,0,0,1,.45-4.4,9.73,9.73,0,0,1,1.49-3.48,6.8,6.8,0,0,1,2.75-2.28,9.74,9.74,0,0,1,4.16-.79,7.64,7.64,0,0,1,4.21,1A6.26,6.26,0,0,1,233,52.66a7.2,7.2,0,0,1,.79,2.68c.07.86.11,1.5.11,2V76.62h6.52V54.52c0-3.34-.91-6-2.72-7.8S233.27,44,229.87,44Z"/><path class="cls-3" d="M0,0V83.62H407.75V0ZM30.25,42.55H44.52l-14.13,14L45.36,79h-14l-9-14.6-2.53,2.47V79H8.42V29.66H19.81V53.44Zm27.83,0V79H46.69V42.55ZM46.69,39.76V29.66H58.08v10.1Zm38.53,2.79v8.61H78.1V66.94c0,1.78.32,2.23.45,2.35a2.72,2.72,0,0,0,1.69.41h5v9.23l-.38,0a50.29,50.29,0,0,1-6.29.41,32.75,32.75,0,0,1-4.75-.31A9.11,9.11,0,0,1,70,77.72a6.83,6.83,0,0,1-2.46-2.89,11.31,11.31,0,0,1-.86-4.77V51.16H60.87V42.55h5.84V32.1H78.1V42.55ZM99.94,65a9.64,9.64,0,0,0,1.2,3,5.4,5.4,0,0,0,2,2,6.08,6.08,0,0,0,3,.7,7.18,7.18,0,0,0,2.84-.48,4.44,4.44,0,0,0,1.77-1.3,6.29,6.29,0,0,0,1.08-2.06h0c.26-.83.51-1.78.73-2.81l.08-.34h11.06l0,.46a17.61,17.61,0,0,1-1.88,7.17,15.61,15.61,0,0,1-4,4.92A16.45,16.45,0,0,1,112.3,79a21.41,21.41,0,0,1-6.13.9,20.06,20.06,0,0,1-7.71-1.42,16.59,16.59,0,0,1-5.78-4,17.28,17.28,0,0,1-3.62-6,22.88,22.88,0,0,1-1.25-7.71A21.38,21.38,0,0,1,89.17,53,17.91,17.91,0,0,1,93,47a17.5,17.5,0,0,1,5.92-4,19.84,19.84,0,0,1,7.66-1.43,20.79,20.79,0,0,1,7,1.11,15.57,15.57,0,0,1,5.23,3.11,14,14,0,0,1,3.36,4.73,16.64,16.64,0,0,1,1.33,5.92l0,.46H112.13l0-.42a6.87,6.87,0,0,0-1.43-4.08,5,5,0,0,0-4.11-1.54,6.47,6.47,0,0,0-3.37.79,5.83,5.83,0,0,0-2.12,2.15,10.33,10.33,0,0,0-1.17,3.25,21.56,21.56,0,0,0-.37,4A17.77,17.77,0,0,0,99.94,65ZM149.39,41.6c4.08,0,7.3,1.16,9.57,3.46s3.42,5.47,3.42,9.46V79H151V58.26c0-.62,0-1.32-.06-2.15a5.77,5.77,0,0,0-.54-2.11,4.22,4.22,0,0,0-1.45-1.63,5,5,0,0,0-2.81-.67,6.53,6.53,0,0,0-3.21.69A5.3,5.3,0,0,0,141,54.27,7.76,7.76,0,0,0,140,57a20.46,20.46,0,0,0-.26,3.25V79H128.33V29.66h11.39V45.15A14.78,14.78,0,0,1,149.39,41.6Zm29.74,24.26a6.27,6.27,0,0,0,1,2.19,6.36,6.36,0,0,0,2.13,1.84,7.85,7.85,0,0,0,3.76.76,8.69,8.69,0,0,0,2.71-.35,5.05,5.05,0,0,0,1.62-.87,4,4,0,0,0,.95-1.14c.24-.44.45-.86.63-1.25l.11-.26h11.71l-.14.54a17.76,17.76,0,0,1-2,4.73,15.25,15.25,0,0,1-3.6,4.06,17.67,17.67,0,0,1-5.18,2.78,20.69,20.69,0,0,1-6.79,1A20.36,20.36,0,0,1,176.67,78a17.17,17.17,0,0,1-5.84-4.74,16.84,16.84,0,0,1-3-6.06,23.63,23.63,0,0,1-.83-5.84,22.2,22.2,0,0,1,1.42-8.07,18.48,18.48,0,0,1,4-6.25,17.49,17.49,0,0,1,6.05-4A20,20,0,0,1,186,41.6a18.22,18.22,0,0,1,8.48,1.82,15.56,15.56,0,0,1,5.65,4.92h0a20.46,20.46,0,0,1,3.09,7.07,36.61,36.61,0,0,1,.92,8.28v.77H178.83C178.91,64.86,179,65.33,179.13,65.86ZM229.87,41.6c4.09,0,7.31,1.16,9.58,3.46s3.41,5.47,3.41,9.46V79H231.47V58.26c0-.62,0-1.32-.06-2.15a5.4,5.4,0,0,0-.54-2.11,4.22,4.22,0,0,0-1.45-1.63,5,5,0,0,0-2.8-.67,6.57,6.57,0,0,0-3.22.69,5.38,5.38,0,0,0-1.94,1.88,7.76,7.76,0,0,0-1,2.77,20.46,20.46,0,0,0-.26,3.25V79H208.81V42.55H220.2v2.6A14.78,14.78,0,0,1,229.87,41.6Zm27.05,22V79H247.8V63.6Zm-9.12-3.72V25.73h0l9.11-2.57V59.88Zm41.13,3.72V79H260.65V63.6Zm-28.28-3.72V22.11l28.28-8V59.88ZM348,79H329.81V58.72L316.59,45.5,314,42.87l-2.63,2.63L298.11,58.72V79h-5.46V13.08l30.83-8.69L334.87,7.6V61.74A17.9,17.9,0,0,0,348,79Zm31.89-7.22a14.14,14.14,0,0,1-24-8.14h43.23V79h-24.5a17.78,17.78,0,0,0,7.91-4.59Zm-24-11.86a14.13,14.13,0,0,1,28,0Zm31.77,0A17.86,17.86,0,1,0,365.23,79H352.74V75.88A14.15,14.15,0,0,1,338.6,61.74V8.65l60.55,17.08h0V59.88Zm-61.6,3.72V79H301.84V63.6Zm-23.88-3.72L314,48.13l11.75,11.75Z"/><path class="cls-1" d="M431,79H419.91V22.11H431Z"/><path class="cls-1" d="M475.73,70.72c0,2.48.23,4.15.71,5a3.12,3.12,0,0,0,1.74,1.58V79H466.23c-.16-.48-.29-.9-.4-1.27s-.2-.72-.28-1.07-.14-.72-.2-1.15-.1-.92-.15-1.5c-.64.63-1.35,1.32-2.14,2.06a13.27,13.27,0,0,1-2.81,2,17.77,17.77,0,0,1-8.67,2.06,16.49,16.49,0,0,1-4.67-.68,11.49,11.49,0,0,1-4.12-2.17,11.09,11.09,0,0,1-2.93-3.84,12.93,12.93,0,0,1-1.11-5.59,15,15,0,0,1,.91-5.42,11.49,11.49,0,0,1,2.58-4,12.57,12.57,0,0,1,3.91-2.65A19.59,19.59,0,0,1,451,54.33l10-1.5a7.78,7.78,0,0,0,2.57-.83,2.54,2.54,0,0,0,1.31-2.5,4.43,4.43,0,0,0-.75-2.73,4.56,4.56,0,0,0-1.82-1.46,7.43,7.43,0,0,0-2.38-.6c-.87-.08-1.65-.11-2.33-.11a8.69,8.69,0,0,0-3.37.55,5.19,5.19,0,0,0-2,1.42,5.78,5.78,0,0,0-1,1.9,9.35,9.35,0,0,0-.39,2H440.1a18.46,18.46,0,0,1,2.25-7.76,12.82,12.82,0,0,1,4.4-4.47,15.92,15.92,0,0,1,5.78-2,42.72,42.72,0,0,1,6.41-.47,34.77,34.77,0,0,1,5.11.43,18.29,18.29,0,0,1,5.5,1.74,12.4,12.4,0,0,1,4.4,3.72,10.42,10.42,0,0,1,1.78,6.3ZM464.88,58.45a9.81,9.81,0,0,1-2.45,1.19,32.32,32.32,0,0,1-5.07,1.11,22.78,22.78,0,0,0-2.93.63,9.11,9.11,0,0,0-2.38,1.07,4.88,4.88,0,0,0-1.62,1.78,6,6,0,0,0-.59,2.85,5.25,5.25,0,0,0,.51,2.42,4.81,4.81,0,0,0,1.27,1.58,4.4,4.4,0,0,0,1.66.83,6.75,6.75,0,0,0,1.7.24,11.25,11.25,0,0,0,3.61-.6,10.36,10.36,0,0,0,3.16-1.66A8.47,8.47,0,0,0,464,67.28a6.91,6.91,0,0,0,.87-3.45Z"/><path class="cls-1" d="M496.39,42.3h.16a16.94,16.94,0,0,1,1.62-2.18A12.45,12.45,0,0,1,500.63,38a13.36,13.36,0,0,1,3.44-1.62,15.5,15.5,0,0,1,4.68-.63,17,17,0,0,1,6.65,1.34,15.79,15.79,0,0,1,5.58,4,19.8,19.8,0,0,1,3.84,6.77,28.94,28.94,0,0,1,1.42,9.54,34,34,0,0,1-1,8.43,22.77,22.77,0,0,1-3.16,7.25,15.56,15.56,0,0,1-13.54,7,17.09,17.09,0,0,1-6.81-1.43,11.39,11.39,0,0,1-5.39-5h-.15V79H485.31V22.11h11.08Zm18.45,15.91a24.54,24.54,0,0,0-.47-4.79,12.9,12.9,0,0,0-1.59-4.15,8.19,8.19,0,0,0-2.93-2.89,8.53,8.53,0,0,0-4.43-1.07,8.62,8.62,0,0,0-4.71,1.18,8.75,8.75,0,0,0-2.93,3.09,13.28,13.28,0,0,0-1.47,4.32,31,31,0,0,0-.39,5,18.35,18.35,0,0,0,.55,4.55,11.42,11.42,0,0,0,1.74,3.84A8.81,8.81,0,0,0,505.74,71a7.13,7.13,0,0,0,4.43-1.31,9.89,9.89,0,0,0,2.77-3.2,14.65,14.65,0,0,0,1.47-4.12A21.46,21.46,0,0,0,514.84,58.21Z"/><path class="cls-1" d="M545.8,79H533.92V67.4H545.8Z"/></svg>