<svg id="レイヤー_1" data-name="レイヤー 1" xmlns="http://www.w3.org/2000/svg" viewBox="0 0 67.85 67.85"><defs><style>.cls-1{fill:#37b6b1;}.cls-2{fill:#fdffff;}</style></defs><rect class="cls-1" width="67.85" height="67.85" rx="5.85"/><path class="cls-2" d="M13,23.68V15.49c0-.41,0-.41.41-.41,2.53,0,5.07,0,7.6,0a4.59,4.59,0,0,1,4.23,2.71,5.17,5.17,0,0,1,.17,4.27,3.35,3.35,0,0,1-1,1.33c-.25.21-.26.27,0,.48a4.39,4.39,0,0,1,1.26,4.26,4.77,4.77,0,0,1-2,3.19,4.3,4.3,0,0,1-2.44.86H14.52c-.41,0-.83,0-1.24,0-.19,0-.26-.07-.26-.24V23.68Zm5.71,1.38v0h-2.2c-.4,0-.44,0-.44.44v3.24c0,.35.08.42.41.42,1.39,0,2.79,0,4.18,0a2.77,2.77,0,0,0,.9-.18,1.65,1.65,0,0,0,1.05-1.54A2.71,2.71,0,0,0,22.45,26,1.65,1.65,0,0,0,21,25.06C20.23,25,19.48,25.06,18.73,25.06Zm.1-2.8h0c.75,0,1.5,0,2.26,0a1.48,1.48,0,0,0,1-.43,2.48,2.48,0,0,0,.46-2.35,1.49,1.49,0,0,0-.22-.48,1.8,1.8,0,0,0-1.6-.78H16.45c-.23,0-.36.09-.36.36,0,1.1,0,2.2,0,3.3,0,.34,0,.39.39.39Z"/><path class="cls-2" d="M43.14,44.35q0-4.11,0-8.22c0-.25.06-.34.33-.33q1.68,0,3.36,0a.42.42,0,0,1,.46.32c.41,1.08.86,2.16,1.28,3.24.34.88.66,1.78,1,2.66.28.72.58,1.44.87,2.16.22.56.42,1.12.64,1.68a3,3,0,0,0,.21.52c0,.07.15.16.21.14a.31.31,0,0,0,.19-.2,3.84,3.84,0,0,0,0-.48q0-4.71,0-9.43c0-.71,0-.62.6-.61s1.49,0,2.24,0c.24,0,.32.07.31.32V52.5c0,.4,0,.4-.4.4H51.1a.4.4,0,0,1-.43-.32c-.26-.73-.54-1.46-.82-2.19L49,48.26c-.36-.91-.71-1.82-1.06-2.72s-.69-1.8-1-2.71a4.61,4.61,0,0,0-.22-.51.27.27,0,0,0-.22-.13c-.06,0-.14.11-.16.18a1.79,1.79,0,0,0,0,.4q0,4.88,0,9.77c0,.28-.08.37-.36.37-.82,0-1.64,0-2.46,0-.25,0-.35-.07-.35-.33q0-4.12,0-8.25Z"/><path class="cls-2" d="M19.18,43.31l.27-.93L20.13,40l.6-2.2c.17-.59.34-1.19.53-1.78a.36.36,0,0,1,.26-.19c1.08,0,2.16,0,3.24,0,.47,0,.47,0,.47.46V52.61c0,.22-.07.3-.29.3H22.32c-.18,0-.25-.06-.25-.25q0-5.05,0-10.11c0-.08,0-.18,0-.24a.29.29,0,0,0-.2-.16c-.05,0-.15.08-.17.14q-.3,1-.57,1.92c-.21.74-.39,1.5-.62,2.24a1.4,1.4,0,0,1-1.34,1,1.41,1.41,0,0,1-1.45-1.07c-.32-1.13-.63-2.28-.94-3.42a4.31,4.31,0,0,0-.19-.61c0-.1-.17-.15-.25-.22-.06.1-.16.19-.16.29,0,2.66,0,5.31,0,8v2.22c0,.21-.06.29-.27.29H13.26c-.19,0-.24-.07-.24-.25q0-8,0-16c0-.1,0-.21,0-.31,0-.66,0-.59.61-.59,1,0,2,0,3,0a.32.32,0,0,1,.38.27c.24.85.47,1.7.71,2.55.3,1.05.6,2.1.89,3.15l.36,1.3a2.56,2.56,0,0,0,.11.24Z"/><path class="cls-2" d="M43.16,23.65V15.54c0-.44,0-.43.43-.43h10.9c.25,0,.33.09.33.33,0,.83,0,1.66,0,2.48,0,.24-.07.33-.33.33H46.67c-.37,0-.4,0-.4.41,0,1.05,0,2.11,0,3.16,0,.24.11.32.33.32h1.07c1.35,0,2.69,0,4,0,.39,0,.41,0,.42.41,0,.77,0,1.55,0,2.32,0,.3-.1.36-.37.36H46.52c-.16,0-.27.05-.27.25,0,1.07,0,2.14,0,3.22,0,.36.07.43.42.43h7.85c.22-.05.28.07.28.25,0,.87,0,1.75,0,2.62,0,.18-.08.22-.24.22h-11c-.35,0-.36,0-.36-.36V23.65Z"/><path class="cls-2" d="M39.21,32.2c-.39,0-.78,0-1.16,0a.43.43,0,0,1-.5-.39c-.2-.87-.4-1.73-.59-2.6-.07-.29-.19-.39-.56-.39H32.48c-.34,0-.68,0-1,0a.31.31,0,0,0-.36.28c-.14.57-.26,1.15-.4,1.72-.1.41-.21.82-.33,1.22a.3.3,0,0,1-.22.16h-2.8c-.19,0-.22-.09-.18-.26.29-1.18.59-2.36.88-3.55.15-.65.29-1.32.45-2,.2-.84.41-1.68.61-2.52s.35-1.44.52-2.16c.21-.88.43-1.77.65-2.65.09-.37.18-.75.25-1.12a3.64,3.64,0,0,1,1.74-2.67,3.3,3.3,0,0,1,3.44,0,3.36,3.36,0,0,1,1.63,2.26c.33,1.47.72,2.93,1.06,4.4.16.71.26,1.42.42,2.13s.33,1.27.48,1.9c.09.35.14.7.22,1.05l.36,1.44c.26,1,.55,2,.78,3,.16.73.17.64-.49.65ZM34,25.8h1.75c.3,0,.36-.06.3-.35s-.21-.88-.31-1.32c-.19-.76-.37-1.53-.56-2.29L34.71,20c-.16-.65-.3-1.3-.47-1.94,0-.1-.17-.23-.24-.22a.41.41,0,0,0-.27.23c-.1.33-.16.67-.24,1l-.42,1.69-.69,2.82c-.15.59-.27,1.18-.42,1.77-.1.37-.07.43.33.43Z"/><path class="cls-2" d="M34.18,35.8h5.76c.3,0,.38.1.38.38q0,1.21,0,2.43c0,.25-.1.34-.35.34H36.16c-.36,0-.42.05-.42.4v9.95c0,.46,0,.48.47.48h3.73c.34,0,.37,0,.37.37,0,.82,0,1.64,0,2.46,0,.22-.06.31-.29.31s-.43,0-.65,0h-10l-1.1,0c-.18,0-.24-.08-.24-.26,0-.85,0-1.71,0-2.57,0-.24.08-.32.33-.32h3.92c.2,0,.28-.09.28-.27V39.38c0-.43,0-.44-.44-.44H28.38c-.19,0-.3,0-.3-.25,0-.9,0-1.79,0-2.69,0-.18.12-.2.26-.2h5.85Z"/></svg>