<svg id="レイヤー_1" data-name="レイヤー 1" xmlns="http://www.w3.org/2000/svg" viewBox="0 0 66.84 66.84"><defs><style>.cls-1{fill:#a6bd1b;}.cls-2{fill:#2c2e32;fill-rule:evenodd;}</style></defs><rect class="cls-1" width="66.84" height="66.84" rx="5.76"/><path id="True-Bird" class="cls-2" d="M36.94,36.93c-.07-.65.33-3.85.33-3.85s.79.13,1.56.22,2,.15,2,.15-.67,2.4-.28,2.95c.89,1.26,5.77,4.39,6.89,5.65a14.25,14.25,0,0,0,1.83,1.58c.49.42,2.09.47,2.51.89s.62,1.18.45,1.34a15.38,15.38,0,0,1-3,.09,2,2,0,0,1-1-.45.69.69,0,0,1-.82.11c-.84-.42-.71-1.28-1.2-2-.28-.28-4.39-3-7-4.45C36.94,37.9,37.05,37.92,36.94,36.93ZM20.63,28.65c-.49-.44-2.3,1.11-2.82,1s0-1.39-.47-1.31c-.63.1-.79,1.56-1.35,1.67-.91.34-1.42-1-1.42-2.62A4.9,4.9,0,0,1,17.1,22.9a9.32,9.32,0,0,1,7.1-.65c2.13-1.14,4.93-4.45,11.18-4.6s8.59,3,9.92,2.21a3.42,3.42,0,0,0,1.48-3.68c-.55-2.4-1.62-3.71-2.48-5.85a5.59,5.59,0,0,1,.11-4.43,2.77,2.77,0,0,1,2.16-1.37c1.12-.13,1.41.81,2.19,1.06s2.45.42,2.58,1-1.87,1.06-2.32,1c-1.07-.11-1.74.6-1.68,1.86.07,1.61.45,2.18,1.93,4.46a8.2,8.2,0,0,1-.43,8.73A13.79,13.79,0,0,0,47.19,25c-.34.71,0-.72,0,2.11a4.52,4.52,0,0,1-3.3,4.79,15.22,15.22,0,0,1-6.91.24,21.43,21.43,0,0,0-6.73,0c-1.09.28-4.5,2.2-4.92,3.09-.22.48-1.42,5.49-1.64,6.59a8.3,8.3,0,0,1-.25,1.76,16,16,0,0,1-4,2.57c-.44.17-1.33.38-1.43.23-.62-.71-.62-.88,1.18-2.18-.63-1.3,1.19-1.62,1.72-2.26s1.64-8.3,2-9.29,1.78-1.33,2.35-2.21c-.27-.32-.64-.15-1.64.13s-2.63.87-3,.55S21.12,29.09,20.63,28.65Z"/><g id="DC-Logo"><g id="Logo-H0"><path id="Delivery-Club" class="cls-2" d="M7.07,59.94H4.54V53.49H7.06a3.23,3.23,0,1,1,0,6.45Zm0-1.21a1.92,1.92,0,0,0,2-2,1.88,1.88,0,0,0-2-2H5.9v4Zm6.51,1.33a2.45,2.45,0,0,1-.07-4.9,2.32,2.32,0,0,1,2.32,2.56V58H12.38a1.23,1.23,0,0,0,1.33,1,1.94,1.94,0,0,0,1.23-.45l.54.81A2.85,2.85,0,0,1,13.57,60.06Zm1.08-2.9a1.07,1.07,0,0,0-1.15-1,1.06,1.06,0,0,0-1.13,1ZM18,60.06a1.16,1.16,0,0,1-1.31-1.29V53.49h1.22v4.95c0,.3.15.53.42.53a.61.61,0,0,0,.43-.15l.25.94A1.51,1.51,0,0,1,18,60.06Zm2.16-5.29a.73.73,0,0,1-.72-.74.72.72,0,0,1,.72-.72.73.73,0,0,1,.73.72A.74.74,0,0,1,20.17,54.77Zm.61,5.17H19.56V55.27h1.22Zm3.72,0H23.19l-1.86-4.67h1.3l1.21,3.25,1.22-3.25h1.3Zm4.59.12a2.45,2.45,0,0,1-.08-4.9,2.32,2.32,0,0,1,2.32,2.56V58H27.89a1.25,1.25,0,0,0,1.33,1,1.92,1.92,0,0,0,1.23-.45l.55.81A2.85,2.85,0,0,1,29.09,60.06Zm1.07-2.9a1.06,1.06,0,0,0-1.15-1,1.07,1.07,0,0,0-1.13,1Zm3.28,2.78H32.22V55.27h1.22v.63a2,2,0,0,1,1.47-.74v1.2a1.42,1.42,0,0,0-.33,0,1.53,1.53,0,0,0-1.14.53Zm4.11,1.9a2.76,2.76,0,0,1-1.94-.7l.55-.88a1.81,1.81,0,0,0,1.39.57,1.17,1.17,0,0,0,1.25-1.2v-.48a2.19,2.19,0,0,1-1.63.71,1.33,1.33,0,0,1-1.5-1.47V55.27h1.22V57.9c0,.65.34.86.85.86a1.37,1.37,0,0,0,1.06-.53v-3H40v4.36A2.18,2.18,0,0,1,37.55,61.84Z"/></g></g><path class="cls-2" d="M45.63,60.06a3.34,3.34,0,1,1,0-6.67A2.91,2.91,0,0,1,48.3,55l-1.17.58a1.75,1.75,0,0,0-1.5-.94,2.12,2.12,0,0,0,0,4.24,1.73,1.73,0,0,0,1.5-.94l1.17.57A2.92,2.92,0,0,1,45.63,60.06Z"/><path class="cls-2" d="M50.5,60.06a1.16,1.16,0,0,1-1.31-1.29V53.49h1.22v4.95c0,.3.15.53.42.53a.58.58,0,0,0,.42-.15l.26.94A1.51,1.51,0,0,1,50.5,60.06Z"/><path class="cls-2" d="M56.4,59.94H55.18v-.59a2.19,2.19,0,0,1-1.63.71,1.33,1.33,0,0,1-1.5-1.47V55.27h1.22v2.84a.75.75,0,0,0,.85.86,1.35,1.35,0,0,0,1.06-.54V55.27H56.4Z"/><path class="cls-2" d="M58.82,58.44a1.41,1.41,0,0,0,1.06.53,1.38,1.38,0,0,0,0-2.72,1.38,1.38,0,0,0-1.06.54Zm0,1.5H57.61V53.49h1.21v2.38a1.77,1.77,0,0,1,1.43-.71c1.18,0,2.06.92,2.06,2.44s-.89,2.46-2.06,2.46a1.8,1.8,0,0,1-1.43-.72Z"/></svg>