<svg id="レイヤー_1" data-name="レイヤー 1" xmlns="http://www.w3.org/2000/svg" viewBox="0 0 66.84 66.84"><defs><style>.cls-1{fill:#595757;}.cls-2{fill:#fff;}</style></defs><rect class="cls-1" width="66.84" height="66.84" rx="5.76"/><path class="cls-2" d="M40.29,8.75,38.56,25.18l-3-13.85-9.29,1.95,2.92,13.86L15.86,30,18.24,41l23.55,5,5.38-12L49.72,9.74ZM32.83,32.6a1.68,1.68,0,0,1-1.81.17c-.68-.22-1-1-.74-2,.2-.73,1.08-.85,1.56-.85a1.06,1.06,0,0,1,.51.12c.31.14.85.45,1,.9A1.63,1.63,0,0,1,32.83,32.6Zm6.83.74c-.37.62-1.27.71-2.21.25a1.35,1.35,0,0,1-.54-1.53,1.33,1.33,0,0,1,.32-.7,1.45,1.45,0,0,1,1-.66,1.63,1.63,0,0,1,1.44,2.64Z"/><path class="cls-2" d="M12.39,58h1.69l-.29-1.32V48.89H12.17v3.57a2.52,2.52,0,0,0-1.95-.89,3,3,0,0,0-2.88,3.3,3,3,0,0,0,2.88,3.3,2.51,2.51,0,0,0,2-.94Zm32-4.71a1.52,1.52,0,0,1,.91.29l.77-1.73a2.27,2.27,0,0,0-1.18-.31,2,2,0,0,0-1.73,1l-.17-.8H41.37L41.64,53v5.09h1.62V54a1.24,1.24,0,0,1,1.17-.68Zm4.74,3.15a1.59,1.59,0,1,1,0-3.18,1.59,1.59,0,1,1,0,3.18ZM8.92,54.87a1.52,1.52,0,0,1,1.63-1.59,1.59,1.59,0,1,1,0,3.18A1.53,1.53,0,0,1,8.92,54.87Zm47.44,1.6a1.59,1.59,0,1,1,0-3.18A1.52,1.52,0,0,1,58,54.88,1.54,1.54,0,0,1,56.36,56.47ZM18,53.19a1.45,1.45,0,0,1,1.56,1.12H16.46A1.42,1.42,0,0,1,18,53.19Zm19.37,0A1.45,1.45,0,0,1,39,54.31H35.83a1.44,1.44,0,0,1,1.56-1.12ZM29.48,58h2.61l1.69-6.34H32l-1.23,5.15L29.54,51.7H27.8Zm-4.16,0h1.62V51.69H25.32Zm-7.06.12a4.72,4.72,0,0,0,2.53-.72L20.17,56a3.94,3.94,0,0,1-1.89.49,1.73,1.73,0,0,1-1.72-1h4.58a4.14,4.14,0,0,0,.07-.74,3.17,3.17,0,1,0-2.95,3.33Zm41.29-3.28a3.2,3.2,0,1,0-3.19,3.3A3.12,3.12,0,0,0,59.55,54.87Zm-21.94,3.3a4.56,4.56,0,0,0,2.53-.73l-.62-1.39a3.9,3.9,0,0,1-1.89.48,1.7,1.7,0,0,1-1.71-1h4.57a3.43,3.43,0,0,0,.08-.74,3.17,3.17,0,1,0-3,3.33Zm11.56,0a3.3,3.3,0,1,0-3.2-3.3A3.12,3.12,0,0,0,49.17,58.17ZM22.24,58h1.62V48.89H22.24Zm3.89-7.21a1,1,0,1,0-1-1A1,1,0,0,0,26.13,50.82Z"/></svg>