<svg id="レイヤー_1" data-name="レイヤー 1" xmlns="http://www.w3.org/2000/svg" viewBox="0 0 66.21 66.21"><defs><style>.cls-1{fill:#595757;}.cls-2{fill:#fff;}</style></defs><rect class="cls-1" width="66.21" height="66.21" rx="5.71"/><g id="zhO99k"><path class="cls-2" d="M36.78,34.35V30.14a1.24,1.24,0,0,0-.29-.06C35.28,30,35,29.75,35,28.54V10.3c0-1.18.32-1.5,1.49-1.5h18.3c1.14,0,1.45.32,1.45,1.46q0,9.18,0,18.37c0,1.15-.28,1.44-1.45,1.44-2.46,0-4.92,0-7.37,0a1,1,0,0,0-1,.5c-.82,1.21-1.83,1.72-4,2.12,0,1.38-.08,2.78-.16,4.17A3,3,0,0,1,39,39.8c-.58,0-1.16-.13-1.74-.18l-2.11-.2c.3.77.56,1.46.82,2.15s.37,1.68.89,2.1,1.43.18,2.17.23a17.64,17.64,0,0,1,5.67,1.34l.61-2.2a4.93,4.93,0,0,1,9.58.15,4.57,4.57,0,0,1-.29,3.09c-1.12,2.47-2.24,4.95-3.39,7.4s-4.29,2.9-6.29.77a16.67,16.67,0,0,0-8-4.93,35.2,35.2,0,0,0-4.71-.71,1.22,1.22,0,0,0-.86.31A17.15,17.15,0,0,1,16.64,53.7l-.45,0c-.1.33-.21.68-.31,1a3,3,0,1,1-5.64-2.06c.68-1.49,1.37-3,2.06-4.46a2.1,2.1,0,0,1,3-1.13,17.6,17.6,0,0,0,10.47,1.32c.18,0,.36-.08.6-.14-.07-.24-.11-.42-.17-.59-1.17-3-2.33-6.08-3.51-9.1a.73.73,0,0,0-.47-.41c-1.05-.13-2.1-.22-3.18-.32,0,.51.1.78.69.92a5,5,0,0,1,1.93.95,2,2,0,0,1,.05,3,1.74,1.74,0,0,0-.41.69,3.7,3.7,0,1,1-7.07-2.18,3,3,0,0,0,.12-1.25c-.2-1.43-.45-2.85-.68-4.28A2.1,2.1,0,0,1,16,33.12c2.32.14,4.64.31,7,.43a1.15,1.15,0,0,0,.81-.34,5.6,5.6,0,0,1,9,.49.91.91,0,0,0,.82.47C34.63,34.21,35.68,34.29,36.78,34.35ZM37.12,19c0,1.27,0,2.54,0,3.81,0,.76.29,1.28.88,1.31a12,12,0,0,0,4.73-.25,4.64,4.64,0,0,0,3.09-4.56c.15-3.21-2-5.49-4.93-5.34-.79,0-1.59,0-2.39,0-1,0-1.38.38-1.38,1.42C37.12,16.56,37.12,17.77,37.12,19Zm12,2.07H53c1,0,1.2-.22,1.16-1.18a3.63,3.63,0,0,0-5.87-2.8,4,4,0,0,0-1.48,4.37,3.54,3.54,0,0,0,2.92,2.85,5,5,0,0,0,3.21-.41,2.23,2.23,0,0,0,1-.8A1.17,1.17,0,0,0,53.83,22c-.18-.22-.67-.25-1-.24s-.54.31-.82.35a9.68,9.68,0,0,1-2.08.07A1,1,0,0,1,49.07,21Z"/><path class="cls-2" d="M31.09,26a8.75,8.75,0,0,1-4.39,4.69,8.62,8.62,0,0,1-9.37-.91A8.52,8.52,0,0,1,14,20.67a8.6,8.6,0,0,1,6.55-6.79,8.16,8.16,0,0,1,4.89.14.84.84,0,0,0,1-.29c1.19-1.14,2.39-2.29,3.68-3.31a2,2,0,0,1,2.86.16,2.07,2.07,0,0,1,0,2.92c-1,1.19-2.05,2.3-3.13,3.5a9.08,9.08,0,0,1,1.75,3.9c.09.49.1,1,.18,1.47a1.35,1.35,0,0,1-1,1.59,5.07,5.07,0,0,1-5.05-.3c-.62-.39-1.15-.32-1.47.17a1,1,0,0,0,.41,1.43,6.92,6.92,0,0,0,5.7.92Z"/><path class="cls-2" d="M39.41,16a15.81,15.81,0,0,1,1.84,0,2.23,2.23,0,0,1,2,1.94,6,6,0,0,1,0,1.79,2.44,2.44,0,0,1-2.65,2.28c-1.53,0-1.25.15-1.26-1.19C39.4,19.28,39.41,17.69,39.41,16Z"/><path class="cls-2" d="M52,19.52H49.14a1.33,1.33,0,0,1,1.27-1.39A1.44,1.44,0,0,1,52,19.52Z"/></g></svg>