<svg id="レイヤー_1" data-name="レイヤー 1" xmlns="http://www.w3.org/2000/svg" viewBox="0 0 66.84 66.84"><defs><style>.cls-1{fill:#595757;}.cls-2{fill:#fff;}</style></defs><rect class="cls-1" width="66.84" height="66.84" rx="5.76"/><path class="cls-2" d="M54.16,21.87A11.44,11.44,0,0,0,44,15.81H12a1.1,1.1,0,0,0-1.09,1.12,1,1,0,0,0,.33.76l7,7a3.31,3.31,0,0,0,2.32,1H43.13a2.9,2.9,0,1,1,.07,5.8H27.64a1.1,1.1,0,0,0-1.09,1.13,1,1,0,0,0,.32.76l6.94,7a3.27,3.27,0,0,0,2.32,1h7c9.18,0,16.11-9.79,11-19.48"/><path class="cls-2" d="M10.89,46.66V49.9h.83a1.6,1.6,0,0,0,1.58-1.62h0a1.59,1.59,0,0,0-1.53-1.62h-.88Zm.83-1a2.64,2.64,0,1,1,0,5.27H9.89a.13.13,0,0,1-.13-.12v-5a.13.13,0,0,1,.13-.12Z"/><path class="cls-2" d="M18.41,50a1.74,1.74,0,1,0-1.73-1.74h0A1.75,1.75,0,0,0,18.41,50m0-4.49a2.75,2.75,0,1,1-2.86,2.75,2.79,2.79,0,0,1,2.86-2.75"/><path class="cls-2" d="M25.23,50a1.74,1.74,0,1,0-1.74-1.74A1.73,1.73,0,0,0,25.23,50h0m0-4.49a2.75,2.75,0,1,1-2.86,2.75,2.79,2.79,0,0,1,2.86-2.75"/><path class="cls-2" d="M31.89,46.66H30.72v1.39h1.17a.69.69,0,0,0,.71-.66v0a.68.68,0,0,0-.66-.71h-.05m-2.3-.88a.12.12,0,0,1,.13-.12h2.2a1.74,1.74,0,0,1,1.81,1.73,1.7,1.7,0,0,1-.94,1.55l1,1.79a.14.14,0,0,1,0,.18.11.11,0,0,1-.08,0h-.9a.15.15,0,0,1-.12-.07l-1-1.78h-1v1.71a.13.13,0,0,1-.13.12h-.85a.12.12,0,0,1-.13-.12Z"/><path class="cls-2" d="M36.68,46.69v3.24h.83a1.6,1.6,0,0,0,1.58-1.62h0a1.59,1.59,0,0,0-1.53-1.62h-.88Zm.82-1a2.64,2.64,0,1,1,0,5.28H35.68a.12.12,0,0,1-.13-.12v-5a.12.12,0,0,1,.13-.12Z"/><path class="cls-2" d="M43.66,47,43,48.7H44.3Zm-1,2.71-.43,1.16a.14.14,0,0,1-.12.09h-.91a.12.12,0,0,1-.14-.11.17.17,0,0,1,0-.07l2-5a.14.14,0,0,1,.13-.08h1c.07,0,.12,0,.13.08l2,5a.14.14,0,0,1-.07.18h-1c-.07,0-.12,0-.13-.09l-.42-1.16h-2Z"/><path class="cls-2" d="M47.32,47.07a1.67,1.67,0,0,1,1.84-1.55,2.41,2.41,0,0,1,1.65.62.15.15,0,0,1,0,.19h0l-.51.51a.14.14,0,0,1-.19,0h0a1.35,1.35,0,0,0-.87-.35c-.46,0-.79.26-.79.57,0,1,2.67.41,2.67,2.29,0,1-.72,1.68-2,1.68a2.64,2.64,0,0,1-1.9-.77.13.13,0,0,1,0-.19h0l.48-.49a.14.14,0,0,1,.19,0h0a1.71,1.71,0,0,0,1.15.48c.57,0,.93-.31.93-.69,0-1-2.65-.41-2.65-2.3"/><path class="cls-2" d="M56,45.77v2H53.71v-2a.12.12,0,0,0-.12-.12h-.86a.12.12,0,0,0-.12.12v5a.12.12,0,0,0,.12.13h.86a.12.12,0,0,0,.12-.13v-2H56v2a.12.12,0,0,0,.12.13H57a.12.12,0,0,0,.12-.13v-5a.12.12,0,0,0-.12-.12H56.1A.12.12,0,0,0,56,45.77Z"/></svg>