<svg id="レイヤー_1" data-name="レイヤー 1" xmlns="http://www.w3.org/2000/svg" viewBox="0 0 66.9 66.9"><defs><style>.cls-1{fill:#368bcb;}.cls-2{fill:#fff;}</style></defs><rect class="cls-1" width="66.9" height="66.9" rx="5.77"/><path class="cls-2" d="M18,33.45a15.16,15.16,0,0,0,15.88,15A15,15,0,0,0,42,45.68c2-1.39,3.5-1.16,5,.75.21.27.43.54.64.82a1.21,1.21,0,0,1-.18,1.89A20.59,20.59,0,0,1,38,54.08a21.19,21.19,0,1,1,13-32.22c.62.95.55,1.41-.35,2.1L32.34,37.89c-.86.66-1.42.58-2.1-.29-.28-.36-.56-.72-.83-1.09A3.07,3.07,0,0,1,30.05,32c1.82-1.41,3.66-2.81,5.5-4.21l6-4.61c1-.79,1-1.61-.11-2.32a15.08,15.08,0,0,0-23.14,9.9C18.15,31.62,18.12,32.55,18,33.45Z"/><path class="cls-2" d="M54.94,35.7a3.68,3.68,0,0,1-1.39,2.73c-.6.5-1.23,1-1.86,1.43A1.14,1.14,0,0,1,50,39.65c-1-1.22-1.89-2.44-2.81-3.68a1.1,1.1,0,0,1,.22-1.67c1.23-1,2.47-1.91,3.73-2.85a1,1,0,0,1,1.42.05,30.94,30.94,0,0,1,2.11,3A3.82,3.82,0,0,1,54.94,35.7Z"/></svg>