<svg id="レイヤー_1" data-name="レイヤー 1" xmlns="http://www.w3.org/2000/svg" viewBox="0 0 66.84 66.84"><defs><style>.cls-1{fill:#595757;}.cls-2{fill:#fff;}</style></defs><rect class="cls-1" width="66.84" height="66.84" rx="5.76"/><g id="Font"><path class="cls-2" d="M6.66,48.22H8V46.94a2.33,2.33,0,0,1,2.56-2.56l.85.16v1.55l-.9-.16c-.54,0-.75.32-.75.85v1.44h1.7v1.54H9.7v6.46H8V49.71H6.66Z"/><path class="cls-2" d="M15.77,48.06a4.16,4.16,0,1,1-4.16,4.16A4.12,4.12,0,0,1,15.77,48.06Zm0,6.77a2.62,2.62,0,1,0-2.45-2.61A2.4,2.4,0,0,0,15.77,54.83Z"/><path class="cls-2" d="M24.84,48.06a4.16,4.16,0,1,1-4.16,4.16A4.13,4.13,0,0,1,24.84,48.06Zm0,6.77a2.62,2.62,0,1,0-2.45-2.61A2.42,2.42,0,0,0,24.84,54.83Z"/><path class="cls-2" d="M37.85,56.16H36.3l-.16-.69L36,55.36l-.1.11a3.11,3.11,0,0,1-2.19.85,4.16,4.16,0,0,1,0-8.32,3,3,0,0,1,2.19.86l.1.1.11-.1V44.43h1.71Zm-4-6.61a2.62,2.62,0,0,0,0,5.23,2.62,2.62,0,0,0,0-5.23Z"/><path class="cls-2" d="M43.07,48.06a4.16,4.16,0,1,1-4.16,4.16A4.12,4.12,0,0,1,43.07,48.06Zm0,6.77a2.62,2.62,0,1,0-2.45-2.61A2.4,2.4,0,0,0,43.07,54.83Z"/><path class="cls-2" d="M48.3,48.22h1.54l.16.85.11.11.11-.11a2.31,2.31,0,0,1,1.86-1,1.65,1.65,0,0,1,.86.16v1.54h-1a1.87,1.87,0,0,0-1.86,1.82v4.64H48.35v-8Z"/><path class="cls-2" d="M57.1,51.2h1.38v-.37c0-1-.64-1.39-1.54-1.39a1.5,1.5,0,0,0-1.5,1.07L54,50.19A3,3,0,0,1,57,48c2.13,0,3.2,1.07,3.2,3.15v5H58.75L58.59,55a2.8,2.8,0,0,1-2.51,1.17,2.26,2.26,0,0,1-2.45-2.45C53.63,52.22,55,51.2,57.1,51.2Zm-.7,3.63a2,2,0,0,0,1.44-.53,1.87,1.87,0,0,0,.64-1.5v-.16H57c-1,0-1.65.48-1.65,1.23A.94.94,0,0,0,56.4,54.83Z"/></g><g id="Cloche"><path class="cls-2" d="M36.65,38.21c1.27-.46,10.5-4.16,12.35-4.85a.28.28,0,0,0,.11-.46,1.63,1.63,0,0,0-1.27-.46C46.92,32.44,39,35,39,35s-3.69.57-4.15.57-.58-.34-.58-.69.23-.69.92-.69,4.73-.35,5.43-.69.57-1.16.23-1.27c-.58-.23-12-.23-17.66-.12H18.08a15.5,15.5,0,0,0,3,7.39,10.82,10.82,0,0,1,5.54-1.27C28.12,38.09,35.15,38.67,36.65,38.21Z"/><path class="cls-2" d="M50.5,28.28H49a15.66,15.66,0,0,0-14.89-15h0v-1.5a.69.69,0,1,0-1.38,0v1.5h0a15.48,15.48,0,0,0-14.88,15H16.58a.7.7,0,0,0,0,1.39H50.5a.67.67,0,0,0,.69-.69A.62.62,0,0,0,50.5,28.28ZM27,16.52a16.93,16.93,0,0,0-3.58,9.57.77.77,0,0,1-.69.81h-1.5c-.46,0-.8-.58-.69-1.15a16.19,16.19,0,0,1,6.35-9.35C27,16.29,27.08,16.4,27,16.52Z"/></g></svg>