<svg id="レイヤー_1" data-name="レイヤー 1" xmlns="http://www.w3.org/2000/svg" viewBox="0 0 66.84 66.84"><defs><style>.cls-1{fill:#595757;}.cls-2{fill:#fff;}</style></defs><rect class="cls-1" width="66.84" height="66.84" rx="5.76"/><path class="cls-2" d="M33.42,62.11A26.66,26.66,0,0,1,6.89,35.58a27.43,27.43,0,0,1,4.49-15,25.14,25.14,0,0,1,10.49-9A26,26,0,0,1,33.42,9.05,26,26,0,0,1,45,11.62a28.33,28.33,0,0,1,10.48,9,27.43,27.43,0,0,1,4.49,15A26.66,26.66,0,0,1,33.42,62.11"/><path class="cls-1" d="M48.69,24.12c-2.36-1.58-7.49-2.37-9.47.2a4,4,0,0,0,0,5.52c2.57,2.77,4.35,5.52,4.94,7.7.59,2.37,1.58,3.15,3.35,3.15s5.33-2.75,5.92-7.3a9.89,9.89,0,0,0-4.74-9.27m-5.32,5.72a1.39,1.39,0,1,1,1.38-1.39,1.35,1.35,0,0,1-1.38,1.39"/><path class="cls-1" d="M27.52,24.32c-2-2.57-7.1-1.78-9.47-.2a10.12,10.12,0,0,0-4.73,9.27c.39,4.55,3.95,7.3,5.92,7.3,1.77,0,2.76-1,3.35-3.15.6-2.37,2.57-4.93,4.93-7.7a4,4,0,0,0,0-5.52m-3.74,5.52a1.39,1.39,0,1,1,1.38-1.39,1.35,1.35,0,0,1-1.38,1.39"/><path class="cls-2" d="M19.11,9.17a7.18,7.18,0,0,0-6.1,0,6.57,6.57,0,0,0-2.77,2.37,7.31,7.31,0,0,0-1.18,4,7,7,0,0,0,14,0,7.32,7.32,0,0,0-1.19-4,7.52,7.52,0,0,0-2.76-2.37M16.06,20.4a4.93,4.93,0,0,1-4.92-4.91A5.16,5.16,0,0,1,12,12.71a4.8,4.8,0,0,1,1.94-1.66,5,5,0,0,1,4.29,0,5.19,5.19,0,0,1,1.94,1.66A5.09,5.09,0,0,1,21,15.49a4.94,4.94,0,0,1-4.92,4.91"/><path class="cls-2" d="M56.66,11.54a7.39,7.39,0,0,0-2.77-2.37,7.16,7.16,0,0,0-6.09,0A6.57,6.57,0,0,0,45,11.54a7.31,7.31,0,0,0-1.18,4,7,7,0,1,0,14,0,7.31,7.31,0,0,0-1.18-4M50.85,20.4a4.93,4.93,0,0,1-4.92-4.91,5.16,5.16,0,0,1,.83-2.78A5,5,0,0,1,53,11.05a5.19,5.19,0,0,1,1.94,1.66,5.17,5.17,0,0,1,.84,2.78,4.94,4.94,0,0,1-4.92,4.91"/><path class="cls-1" d="M33.38,48c3.54,0,6.5-2.56,6.5-5.71h-13c0,3.15,2.76,5.71,6.5,5.71"/><path class="cls-1" d="M33.38,40.6c.39.18,4.53-1.33,4.53-3.22,0-1.14-3.35-1.33-4.53-1.33s-4.53.19-4.53,1.33c-.2,1.89,4.13,3.4,4.53,3.22"/></svg>