<svg id="レイヤー_1" data-name="レイヤー 1" xmlns="http://www.w3.org/2000/svg" viewBox="0 0 66.84 66.84"><defs><style>.cls-1{fill:#f4c527;}.cls-2{fill:#14987d;fill-rule:evenodd;}</style></defs><rect class="cls-1" width="66.84" height="66.84" rx="5.76"/><path class="cls-2" d="M8.34,31.92v0a6,6,0,0,1,6.12-6,6.47,6.47,0,0,1,4,1.18,1,1,0,0,1,.43.84,1,1,0,0,1-1,1,1.07,1.07,0,0,1-.64-.23,4.55,4.55,0,0,0-2.88-.92,4,4,0,0,0-3.84,4.12v0a3.92,3.92,0,0,0,4,4.17,4.91,4.91,0,0,0,2.86-.88V33H15.08a.9.9,0,1,1,0-1.79h3.31a1,1,0,0,1,1.05,1v3.11a1.41,1.41,0,0,1-.73,1.3,7.62,7.62,0,0,1-4.22,1.27A5.84,5.84,0,0,1,8.34,31.92Zm13-5.46a1,1,0,0,1,2.05,0V36.8a1,1,0,0,1-2.05,0V26.46Zm3.64,6.91v0a4.77,4.77,0,0,1,9.54,0v0a4.64,4.64,0,0,1-4.79,4.58A4.59,4.59,0,0,1,24.94,33.37Zm7.49,0v0a2.74,2.74,0,0,0-2.74-2.84A2.66,2.66,0,0,0,27,33.3v0a2.73,2.73,0,0,0,2.73,2.81,2.65,2.65,0,0,0,2.71-2.78Zm7.17,4.52h-.1A1.26,1.26,0,0,1,38.33,37l-3-6.72a1.53,1.53,0,0,1-.12-.5,1,1,0,0,1,1-1,1,1,0,0,1,1,.73l2.3,5.84,2.34-5.87a1,1,0,0,1,1-.7,1,1,0,0,1,1,1,1.21,1.21,0,0,1-.12.49l-3,6.73a1.3,1.3,0,0,1-1.17.89Zm5-4.52v0a4.65,4.65,0,0,1,4.78-4.61,4.6,4.6,0,0,1,4.76,4.57v0a4.77,4.77,0,0,1-9.54,0Zm7.49,0v0a2.74,2.74,0,0,0-2.74-2.84,2.67,2.67,0,0,0-2.7,2.8v0a2.73,2.73,0,0,0,2.73,2.81,2.65,2.65,0,0,0,2.71-2.78Zm5.48-12.63a4,4,0,0,0-4,4A3.93,3.93,0,0,0,54.31,27l.11.15,2.1,2.91a1,1,0,0,0,.81.41h.5a1,1,0,0,0,.81-.41l2.1-2.91.11-.15a3.92,3.92,0,0,0,.76-2.31,4,4,0,0,0-4-4Zm1.66,5.13-.11.16-1.55,2.14L56,26l-.11-.16a1.89,1.89,0,0,1-.39-1.17,2,2,0,0,1,4.08,0,2,2,0,0,1-.38,1.17Zm-2.79,6.4h0a1.09,1.09,0,0,1,1.12-1.08,1.08,1.08,0,0,1,1.12,1.07h0a1.09,1.09,0,0,1-1.13,1.08,1.07,1.07,0,0,1-1.11-1.07Z"/></svg>