<svg id="レイヤー_1" data-name="レイヤー 1" xmlns="http://www.w3.org/2000/svg" viewBox="0 0 67.85 67.85"><defs><style>.cls-1{fill:#df2e36;}.cls-2{fill:#fff;}</style></defs><rect class="cls-1" width="67.85" height="67.85" rx="5.85"/><path class="cls-2" d="M33.93,6A20.39,20.39,0,1,1,13.5,26.33,20.4,20.4,0,0,1,33.93,6Zm-8,9.45a1.51,1.51,0,0,0-.5,1.18v6a1,1,0,1,1-2,0h0a26.81,26.81,0,0,1,.41-4.82A1.55,1.55,0,0,0,22.6,16a1.47,1.47,0,0,0-1.69,1.21.2.2,0,0,1,0,.07,38.55,38.55,0,0,0-.46,7A6.94,6.94,0,0,0,23.6,30a3.13,3.13,0,0,1,1.48,2.48L25.24,36a1.65,1.65,0,1,0,3.29,0l.16-3.44a3,3,0,0,1,1.52-2.45,6.61,6.61,0,0,0,3.11-5.39,38,38,0,0,0-.44-7.46A1.48,1.48,0,0,0,31.23,16h-.05A1.56,1.56,0,0,0,30,17.79a26.92,26.92,0,0,1,.41,4.83,1,1,0,0,1-.93,1.06,1,1,0,0,1-1.08-1.06v-6A1.61,1.61,0,0,0,27.14,15a1.51,1.51,0,0,0-1.22.37ZM41.59,15c-3.89,0-5.84,5.88-5.84,9.75a6.09,6.09,0,0,0,2.7,5A2.93,2.93,0,0,1,39.77,32L40,36a1.65,1.65,0,0,0,1.61,1.66,1.55,1.55,0,0,0,.86-.23A1.61,1.61,0,0,0,43.23,36l.19-4a2.92,2.92,0,0,1,1.31-2.27,6,6,0,0,0,2.7-5C47.43,20.89,45.49,15,41.59,15Z"/><path class="cls-2" d="M15.1,53.42h0v-.7h1.93v7c0,2-1.62,3.44-3.88,3.44a4.63,4.63,0,0,1-3.86-1.71l1.44-1.19a2.78,2.78,0,0,0,2.42,1.18,1.78,1.78,0,0,0,2-1.69v-.52h0a3.06,3.06,0,0,1-2.32.87,3.76,3.76,0,1,1-.07-7.51A3.26,3.26,0,0,1,15.1,53.42Zm7-.91a3.8,3.8,0,1,1,0,7.59,3.8,3.8,0,1,1,0-7.59Zm14.83,0a3.8,3.8,0,1,1,0,7.59,3.8,3.8,0,1,1,0-7.59Zm8.92,0a3.8,3.8,0,1,1,0,7.59,3.8,3.8,0,1,1,0-7.59ZM58.94,50V59.9H57.08v-.71h0a3.15,3.15,0,0,1-2.43.91,3.68,3.68,0,0,1-2.78-1,3.9,3.9,0,0,1,0-5.47,3.79,3.79,0,0,1,2.73-1.08,3.4,3.4,0,0,1,2.33.78h0V50ZM32.37,50v1.72H30.72c-.39,0-.6.19-.6.56v.49h2.69v1.7H30.12V59.9h-2V54.42H26.39v-1.7h1.72V52c0-1.26.89-2,2.37-2ZM22.11,54.28a2,2,0,1,0,2.05,2,1.94,1.94,0,0,0-2.05-2Zm14.83,0a2,2,0,1,0,2.05,2,1.94,1.94,0,0,0-2.05-2Zm8.92,0a2,2,0,1,0,2,2,1.94,1.94,0,0,0-2-2Zm-32.76.06a2,2,0,0,0-2.18,2,1.91,1.91,0,0,0,2.09,2,1.85,1.85,0,0,0,2-1.59V55.9A1.86,1.86,0,0,0,13.1,54.34Zm40.26.48a2,2,0,0,0,1.52,3.51,1.86,1.86,0,0,0,2-1.59v-.91c0-.85-1-1.56-2-1.56a2,2,0,0,0-1.52.55Z"/></svg>