<svg id="レイヤー_1" data-name="レイヤー 1" xmlns="http://www.w3.org/2000/svg" viewBox="0 0 67.85 67.85"><defs><style>.cls-1{fill:#595757;}.cls-2,.cls-3{fill:#fff;}.cls-2{fill-rule:evenodd;}</style></defs><rect class="cls-1" width="67.85" height="67.85" rx="5.85"/><path class="cls-2" d="M18.06,18.86H50.49V42.79H18.06V18.86ZM39.83,38.94c-.34.21-.66.06-1-.25l-5-5-5.1,5.05c-.31.32-.63.47-1,.22-.05,0-.65-.65-.67-.69-.21-.34-.07-.65.24-1l5.05-5.09-1.76-1.75c-1.8,1.17-3.68.13-4.88-1.37a8.33,8.33,0,0,1-1.44-3.24,4.37,4.37,0,0,1,0-1.95,1.44,1.44,0,0,1,1.23-1.22,4.44,4.44,0,0,1,1.93,0,8.53,8.53,0,0,1,3.25,1.43c1.49,1.21,2.54,3.09,1.36,4.88l1.74,1.76,1.62-1.63a10.17,10.17,0,0,1,.05-2c.07-.32.26-.5.72-.93l4.6-4.08c.81-.84,1.39-.26.53.54l-3.05,2.88c-.34.33-.57.64-.17,1s.64.17,1-.15l3.16-3.17c.25-.27.57-.32.72-.14s.13.47-.14.72L39.65,27c-.32.31-.54.55-.14,1s.7.18,1-.17l2.88-3.05c.8-.86,1.39-.28.54.53l-4.08,4.6c-.42.46-.61.65-.92.72a8.89,8.89,0,0,1-2,.05l-1.64,1.63,5,5c.33.31.47.64.22,1,0,.06-.64.65-.68.68ZM19.46,18c-.23,0-.3-.29,0-.54l8.33-7.74h13l8.32,7.74c.31.25.24.54,0,.54H19.46Zm-.13-4.69.07,3.44,6.32-5.91H22c-1.63,0-2.77.87-2.65,2.47Zm29.89,0-.07,3.44-6.33-5.91h3.75c1.63,0,2.76.87,2.65,2.47ZM31,12.44h6.52a.63.63,0,0,1,.63.63V14a.53.53,0,0,1,0,.13H30.39s0-.08,0-.13v-.93a.63.63,0,0,1,.63-.63Z"/><path class="cls-3" d="M14.92,53.61h2.57v4.08l-.1,0-.26.08-.31.09h0c-.22.05-.47.1-.74.14h0l-.42,0-.42,0h0a4.84,4.84,0,0,1-1.54-.23h0a3,3,0,0,1-1.17-.71h0c-.11-.12-.21-.24-.31-.37s-.18-.27-.26-.41-.14-.31-.2-.48a3.8,3.8,0,0,1-.15-.51,5,5,0,0,1-.09-.56,5.49,5.49,0,0,1,0-.58h0a5.58,5.58,0,0,1,0-.73,4.36,4.36,0,0,1,.38-1.26,3,3,0,0,1,.32-.52,4.19,4.19,0,0,1,.39-.45,4.06,4.06,0,0,1,.46-.36,3.29,3.29,0,0,1,.52-.29,3.38,3.38,0,0,1,.56-.2,3.14,3.14,0,0,1,.61-.12,4.48,4.48,0,0,1,.64,0l.37,0a2,2,0,0,1,.35,0l.32,0,.28.06h0l.25.08.22.09.11,0,0,.12L17,51.94l0,.18L16.78,52,16.61,52l-.18-.06h0l-.2,0-.23,0h0l-.27,0h-.29a3.19,3.19,0,0,0-.45,0,2.88,2.88,0,0,0-.42.11,3,3,0,0,0-.36.18,1.86,1.86,0,0,0-.31.26,1.46,1.46,0,0,0-.26.33,2,2,0,0,0-.19.42h0a1.93,1.93,0,0,0-.12.5,3.83,3.83,0,0,0-.05.6,5.28,5.28,0,0,0,0,.58,3.19,3.19,0,0,0,.12.49,2.3,2.3,0,0,0,.17.42,2,2,0,0,0,.24.33h0a1.42,1.42,0,0,0,.29.26h0a1.35,1.35,0,0,0,.33.19h0a2.26,2.26,0,0,0,.37.11,2.71,2.71,0,0,0,.41,0h.23l.2,0h0l.15,0h0V55H14.77V53.61Zm6.71-1.32h.08l.12,0V54l-.18,0h-.34A.84.84,0,0,0,21,54a.92.92,0,0,0-.23.09.9.9,0,0,0-.19.15.91.91,0,0,0-.15.23h0a1.5,1.5,0,0,0-.1.3,2.25,2.25,0,0,0,0,.38h0V58H18.61V53.73c0-.15,0-.29,0-.43h0c0-.13,0-.26,0-.39s0-.25,0-.37v-.16h1.52v.15l0,.44.15-.19h0a1.71,1.71,0,0,1,.25-.22,1.2,1.2,0,0,1,.27-.16h0a1.9,1.9,0,0,1,.28-.1l.29,0h.19l.08,0Zm5.19,1.91a3.4,3.4,0,0,1,0,.45h0v2.41h0a1.7,1.7,0,0,1,0,.22c0,.07,0,.14,0,.21h0a1.11,1.11,0,0,0,0,.19.78.78,0,0,0,0,.16L27,58H25.37l0-.13,0-.26-.2.17h0a2,2,0,0,1-.25.14,1.08,1.08,0,0,1-.27.1l-.3.07-.31,0h0a1.81,1.81,0,0,1-.72-.14h0a1.46,1.46,0,0,1-.3-.17,1.09,1.09,0,0,1-.26-.22h0a1.64,1.64,0,0,1-.2-.26,1.4,1.4,0,0,1-.15-.3h0a1.68,1.68,0,0,1-.09-.32,2,2,0,0,1,0-.34h0a2.12,2.12,0,0,1,.06-.52,1.77,1.77,0,0,1,.18-.45h0a1.69,1.69,0,0,1,.28-.38,2.2,2.2,0,0,1,.37-.3,2.38,2.38,0,0,1,.45-.23,2.86,2.86,0,0,1,.52-.16,5,5,0,0,1,.58-.1l.47,0s0-.05,0-.07a1.17,1.17,0,0,0-.05-.2h0A.42.42,0,0,0,25,53.8a.47.47,0,0,0-.13-.11h0a.65.65,0,0,0-.21-.07,1.48,1.48,0,0,0-.31,0l-.34,0-.33.07h0l-.3.11a1.59,1.59,0,0,0-.26.14l-.18.1-.05-.19-.27-.92,0-.11.1-.06a.9.9,0,0,1,.22-.11,1.56,1.56,0,0,1,.26-.11l.3-.1.35-.08.38-.05a2.82,2.82,0,0,1,.42,0h0a2.76,2.76,0,0,1,.59,0,2.18,2.18,0,0,1,.49.14h0a1.91,1.91,0,0,1,.4.23,1.52,1.52,0,0,1,.31.31,1.65,1.65,0,0,1,.22.36,2.48,2.48,0,0,1,.15.41h0a3.07,3.07,0,0,1,.07.42Zm-1.68,2a1.23,1.23,0,0,0,0-.2h0v-.61H25l-.27,0h0l-.24.05-.22.08-.17.11a.8.8,0,0,0-.13.13h0a.51.51,0,0,0-.07.17.78.78,0,0,0,0,.22.65.65,0,0,0,0,.2.58.58,0,0,0,.05.14h0a.44.44,0,0,0,.08.11l.1.07h0a.58.58,0,0,0,.26.06h.11l.13,0h0l.12-.05.12-.08a.47.47,0,0,0,.1-.1.64.64,0,0,0,.08-.14h0a.6.6,0,0,0,.05-.16Zm4.63-6.07v2.61l0,0a1.64,1.64,0,0,1,.37-.26h0a2,2,0,0,1,.45-.17,2.57,2.57,0,0,1,.5,0h0a2.24,2.24,0,0,1,.46,0,1.92,1.92,0,0,1,.42.16h0a1.83,1.83,0,0,1,.36.26,1.62,1.62,0,0,1,.31.33h0a2.86,2.86,0,0,1,.24.42h0a2.48,2.48,0,0,1,.17.48h0a3,3,0,0,1,.11.54,3.81,3.81,0,0,1,0,.59h0a5.17,5.17,0,0,1,0,.57,2.71,2.71,0,0,1-.1.51,3.53,3.53,0,0,1-.15.46,2.35,2.35,0,0,1-.19.39h0l-.24.33a2.46,2.46,0,0,1-.28.28,2.82,2.82,0,0,1-.31.21,1.5,1.5,0,0,1-.34.16,2.14,2.14,0,0,1-.34.09h0l-.36,0h0a2.31,2.31,0,0,1-.46-.05,1.92,1.92,0,0,1-.42-.16h0a1.69,1.69,0,0,1-.37-.29l-.08-.1,0,.35V58H28v-.16c0-.07,0-.14,0-.21s0-.15,0-.23h0V50h1.72v.15Zm0,4.31a1.5,1.5,0,0,0,0,.22h0v1h0a1,1,0,0,0,0,.26.9.9,0,0,0,.08.23h0a.88.88,0,0,0,.12.19.83.83,0,0,0,.35.24.85.85,0,0,0,.23,0,.8.8,0,0,0,.27,0,.71.71,0,0,0,.22-.13h0a.63.63,0,0,0,.18-.21,1.57,1.57,0,0,0,.14-.29h0a1.93,1.93,0,0,0,.09-.38,3.23,3.23,0,0,0,0-.46c0-.11,0-.22,0-.32a1.26,1.26,0,0,0,0-.28,2,2,0,0,0-.07-.26,1.39,1.39,0,0,0-.11-.21.76.76,0,0,0-.13-.17.61.61,0,0,0-.16-.12h0a.49.49,0,0,0-.18-.08.66.66,0,0,0-.21,0h0l-.15,0-.14.05h0l-.14.08h0L30,54a.71.71,0,0,0-.1.14.91.91,0,0,0-.09.17,1.17,1.17,0,0,0-.05.2ZM36,55V58H34.26V50.35h4.25v1.5H36v1.63h2.35V55H36Zm4.9-2.48h0a2.63,2.63,0,0,1,1.06-.2h0a3.24,3.24,0,0,1,.56,0,2.76,2.76,0,0,1,.51.16h0a2.13,2.13,0,0,1,.44.26,2.05,2.05,0,0,1,.38.34,2.74,2.74,0,0,1,.3.43,2.43,2.43,0,0,1,.22.49h0a3.39,3.39,0,0,1,.13.55,4,4,0,0,1,0,.61,5.41,5.41,0,0,1,0,.59,4.12,4.12,0,0,1-.12.53h0a4.7,4.7,0,0,1-.17.45,2.55,2.55,0,0,1-.24.39h0a2.92,2.92,0,0,1-.28.32,2.6,2.6,0,0,1-.32.26h0a3,3,0,0,1-.35.19,2.79,2.79,0,0,1-.37.14h0a2.53,2.53,0,0,1-.38.07,2.43,2.43,0,0,1-.38,0h0a3.1,3.1,0,0,1-.54-.05,2.15,2.15,0,0,1-.51-.15h0a2,2,0,0,1-.45-.24,2.43,2.43,0,0,1-.38-.33,2.59,2.59,0,0,1-.32-.42,2.84,2.84,0,0,1-.23-.5h0a3.28,3.28,0,0,1-.14-.58h0a3.22,3.22,0,0,1,0-.63,4.43,4.43,0,0,1,0-.66,2.68,2.68,0,0,1,.15-.59,2.38,2.38,0,0,1,.24-.51,2.22,2.22,0,0,1,.32-.42,2.18,2.18,0,0,1,.4-.34h0a1.83,1.83,0,0,1,.46-.24Zm1.84,3.36a3.24,3.24,0,0,0,.06-.64,2.81,2.81,0,0,0,0-.3,2.54,2.54,0,0,0,0-.29,2.29,2.29,0,0,0-.07-.28,2.44,2.44,0,0,0-.1-.24h0a1.57,1.57,0,0,0-.12-.19,1.06,1.06,0,0,0-.15-.15h0a.7.7,0,0,0-.17-.09l-.21,0-.18,0a.44.44,0,0,0-.16.06l-.13.1a.74.74,0,0,0-.12.13h0a.69.69,0,0,0-.1.17.84.84,0,0,0-.08.19h0a.83.83,0,0,0-.06.21c0,.07,0,.15-.05.23A1.79,1.79,0,0,0,41,55h0a1.93,1.93,0,0,0,0,.24,3.25,3.25,0,0,0,0,.33,2.91,2.91,0,0,0,0,.31h0a2.13,2.13,0,0,0,.08.27,2.56,2.56,0,0,0,.11.24h0a.83.83,0,0,0,.13.18,1,1,0,0,0,.15.14h0l.17.08h0a.69.69,0,0,0,.2,0,.58.58,0,0,0,.19,0l.17-.08h0l.15-.14a1.56,1.56,0,0,0,.13-.19h0a1.33,1.33,0,0,0,.1-.24,1.73,1.73,0,0,0,.08-.27Zm4.08-3.36h0a2.67,2.67,0,0,1,1.06-.2h0a3.45,3.45,0,0,1,.57,0,2.76,2.76,0,0,1,.51.16h0a2.61,2.61,0,0,1,.82.6,2.16,2.16,0,0,1,.29.43,2.43,2.43,0,0,1,.22.49h0a3.41,3.41,0,0,1,.14.55,5.86,5.86,0,0,1,0,.61,3.65,3.65,0,0,1,0,.59,2.93,2.93,0,0,1-.11.53h0a3,3,0,0,1-.18.45,2.55,2.55,0,0,1-.24.39h0a2.14,2.14,0,0,1-.28.32,2.6,2.6,0,0,1-.32.26h0a2.93,2.93,0,0,1-.72.33h0a2.41,2.41,0,0,1-.37.07l-.38,0h0a3.21,3.21,0,0,1-.55-.05,2.07,2.07,0,0,1-.5-.15h0a2,2,0,0,1-.45-.24,3.09,3.09,0,0,1-.39-.33,2.53,2.53,0,0,1-.31-.42,3.85,3.85,0,0,1-.24-.5h0a3.28,3.28,0,0,1-.14-.58h0a4.23,4.23,0,0,1-.05-.63,4.43,4.43,0,0,1,.05-.66,4.61,4.61,0,0,1,.15-.59,4,4,0,0,1,.24-.51,2.78,2.78,0,0,1,.33-.42,2.5,2.5,0,0,1,.39-.34h0a2,2,0,0,1,.46-.24Zm1.84,3.36a2.62,2.62,0,0,0,.07-.64,2.66,2.66,0,0,0,0-.3,2.54,2.54,0,0,0,0-.29,2.29,2.29,0,0,0-.07-.28,2.44,2.44,0,0,0-.1-.24h0a.62.62,0,0,0-.12-.19.54.54,0,0,0-.15-.15h0a.56.56,0,0,0-.17-.09.64.64,0,0,0-.2,0l-.19,0a.47.47,0,0,0-.15.06.71.71,0,0,0-.14.1.69.69,0,0,0-.11.13h0a.69.69,0,0,0-.1.17.84.84,0,0,0-.08.19h0L47,54.5a1.57,1.57,0,0,0,0,.23l0,.23h0v.24c0,.12,0,.23,0,.33a2.87,2.87,0,0,0,0,.31h0a2.13,2.13,0,0,0,.08.27,2.44,2.44,0,0,0,.1.24h0a1.4,1.4,0,0,0,.13.18.7.7,0,0,0,.16.14h0l.17.08h0a.64.64,0,0,0,.2,0,.63.63,0,0,0,.19,0l.16-.08h0a.67.67,0,0,0,.15-.14.91.91,0,0,0,.13-.19h0a1.33,1.33,0,0,0,.11-.24,1.76,1.76,0,0,0,.07-.27ZM54.75,50h1.57v6.87h0a2.44,2.44,0,0,1,0,.27,2.35,2.35,0,0,0,0,.26h0c0,.16,0,.31,0,.44V58H54.82v-.14l0-.37-.18.18h0a1.51,1.51,0,0,1-.26.18A2,2,0,0,1,54,58l-.33.09a1.87,1.87,0,0,1-.34,0h0a1.78,1.78,0,0,1-.47-.06,1.59,1.59,0,0,1-.43-.16h0a2,2,0,0,1-.39-.25,3.59,3.59,0,0,1-.32-.35h0a3,3,0,0,1-.26-.42,2.38,2.38,0,0,1-.19-.49h0a2.44,2.44,0,0,1-.12-.55,3.86,3.86,0,0,1,0-.6h0a4.73,4.73,0,0,1,0-.67,3.4,3.4,0,0,1,.14-.59h0a3.26,3.26,0,0,1,.21-.5,2.69,2.69,0,0,1,.29-.43h0a2.73,2.73,0,0,1,.34-.34,1.63,1.63,0,0,1,.4-.24h0a1.69,1.69,0,0,1,.43-.15,1.73,1.73,0,0,1,.45,0h0l.31,0a2.11,2.11,0,0,1,.29.06h0l.26.11a1.18,1.18,0,0,1,.22.14h0l.06,0V50ZM54.57,56a1.1,1.1,0,0,0,0-.26h0v-1h0a2,2,0,0,0,0-.25,1.66,1.66,0,0,0-.06-.21h0a.89.89,0,0,0-.08-.17.71.71,0,0,0-.1-.14h0l-.12-.1a.57.57,0,0,0-.13-.08.67.67,0,0,0-.28-.06h0a.78.78,0,0,0-.22,0l-.18.08h0l-.16.13a1.4,1.4,0,0,0-.13.18h0a1.51,1.51,0,0,0-.11.22c0,.08,0,.17-.08.27h0a2.54,2.54,0,0,0,0,.29,3.25,3.25,0,0,0,0,.33,2.9,2.9,0,0,0,0,.43A1.9,1.9,0,0,0,53,56h0a1.57,1.57,0,0,0,.14.29.91.91,0,0,0,.18.21h0a.94.94,0,0,0,.22.12h0a.75.75,0,0,0,.26,0h.14l.13,0h0a.84.84,0,0,0,.14-.06l.12-.1h0a.69.69,0,0,0,.11-.13l.09-.17h0a1.42,1.42,0,0,0,0-.22Z"/></svg>