<svg id="レイヤー_1" data-name="レイヤー 1" xmlns="http://www.w3.org/2000/svg" viewBox="0 0 67.85 67.85"><defs><style>.cls-1{fill:#e63840;}.cls-2{fill:#f7f7f7;}</style></defs><rect class="cls-1" width="67.85" height="67.85" rx="5.85"/><path class="cls-2" d="M55,27.67H52.89a.16.16,0,0,0-.18.18v8.52a1.59,1.59,0,0,1-.32,1,.82.82,0,0,1-.73.3,1,1,0,0,1-.74-.3,1.59,1.59,0,0,1-.3-1V27.85a.19.19,0,0,0-.18-.18H48.27a.16.16,0,0,0-.18.18v8.58A3.94,3.94,0,0,0,49,39.26a3.63,3.63,0,0,0,2.65,1.05,3.51,3.51,0,0,0,2.66-1.05,3.89,3.89,0,0,0,.92-2.83V27.85c.06-.06-.06-.18-.2-.18m8.26,6a3.47,3.47,0,0,0,1-2.34,3.7,3.7,0,0,0-.88-2.53,3.51,3.51,0,0,0-2.65-1.11h-3.4a.2.2,0,0,0-.2.18v12a.2.2,0,0,0,.2.18H61a3.52,3.52,0,0,0,2.84-1.3,4.11,4.11,0,0,0,.8-2.53,3.72,3.72,0,0,0-1.35-2.58ZM59.72,30.2h1.11a.83.83,0,0,1,.73.3,1.19,1.19,0,0,1,.26.88,1.42,1.42,0,0,1-.26.93,1,1,0,0,1-.67.3h-1.1V30.2Zm2,7.09a.87.87,0,0,1-.8.3H59.66V35h1.23a1,1,0,0,1,.73.32,1.39,1.39,0,0,1,.32.92,1.32,1.32,0,0,1-.25,1.06ZM17.81,34.76a2.35,2.35,0,0,0,.62-.56,4,4,0,0,0,1-2.71,3.65,3.65,0,0,0-1-2.65,3.56,3.56,0,0,0-2.59-1.17H12.27a.19.19,0,0,0-.19.18v12a.2.2,0,0,0,.19.18h2.15a.19.19,0,0,0,.18-.18V35.43h.74L16.69,40c0,.06.14.12.2.12h2.27c.06,0,.12-.06.18-.06s.06-.12.06-.18Zm-1.36-2.23a1,1,0,0,1-.87.38h-1V30.2h1a1.08,1.08,0,0,1,.87.36,1.33,1.33,0,0,1,.32,1,1.2,1.2,0,0,1-.32,1ZM36,33.71a3.38,3.38,0,0,0,1.05-2.34,3.7,3.7,0,0,0-.87-2.53,3.52,3.52,0,0,0-2.65-1.11H30.19a.19.19,0,0,0-.18.18v12a.19.19,0,0,0,.18.18h3.58a3.56,3.56,0,0,0,2.85-1.3,4.11,4.11,0,0,0,.8-2.53A3.38,3.38,0,0,0,36,33.71ZM32.48,30.2h1.11a.81.81,0,0,1,.72.3,1.24,1.24,0,0,1,.25.88,1.48,1.48,0,0,1-.25.93,1,1,0,0,1-.66.3H32.54V30.2Zm2,7.09a.87.87,0,0,1-.8.3H32.48V35h1.23a1,1,0,0,1,.72.32,1.44,1.44,0,0,1,.32.92A1.5,1.5,0,0,1,34.51,37.29ZM6.77,27.49a3.49,3.49,0,0,0-2.66,1,3.91,3.91,0,0,0-.91,2.84v5.12a4,4,0,0,0,.91,2.83,3.71,3.71,0,0,0,2.66,1,3.51,3.51,0,0,0,2.66-1,3.84,3.84,0,0,0,.91-2.83V33.67a.26.26,0,0,0-.24-.26H7a.27.27,0,0,0-.26.26v2.09A.27.27,0,0,0,7,36h.81v.5a1.79,1.79,0,0,1-.31,1,.84.84,0,0,1-.74.3,1.06,1.06,0,0,1-.74-.3,1.79,1.79,0,0,1-.31-1V31.44a1.69,1.69,0,0,1,.31-1,.84.84,0,0,1,.74-.31,1,1,0,0,1,.74.31,1.74,1.74,0,0,1,.31,1v.49a.2.2,0,0,0,.18.19H10.1a.17.17,0,0,0,.18-.19v-.49a3.94,3.94,0,0,0-.92-2.83A3.14,3.14,0,0,0,6.77,27.49Zm21.09.18H25.71a.17.17,0,0,0-.19.18v8.52a1.59,1.59,0,0,1-.31,1,.84.84,0,0,1-.73.3,1,1,0,0,1-.74-.3,1.53,1.53,0,0,1-.31-1V27.85a.2.2,0,0,0-.19-.18H21.09c-.13,0-.19.06-.19.18v8.58a4,4,0,0,0,.93,2.83,3.67,3.67,0,0,0,2.65,1.05,3.46,3.46,0,0,0,2.65-1.05,3.81,3.81,0,0,0,.93-2.83V27.85C28,27.79,28,27.67,27.86,27.67Zm18.12,0H43.83a.19.19,0,0,0-.18.18v4.68H41.5V27.85a.2.2,0,0,0-.19-.18H39.16a.19.19,0,0,0-.18.18v12a.19.19,0,0,0,.18.18h2.15a.19.19,0,0,0,.19-.18V35.06h2.15v4.81a.19.19,0,0,0,.18.18H46a.19.19,0,0,0,.18-.18v-12A.19.19,0,0,0,46,27.67Z"/></svg>