<svg id="レイヤー_1" data-name="レイヤー 1" xmlns="http://www.w3.org/2000/svg" viewBox="0 0 67.21 67.21"><defs><style>.cls-1{fill:#ba121a;}.cls-2{fill:#fff;fill-rule:evenodd;}</style></defs><rect class="cls-1" width="67.21" height="67.21" rx="5.79"/><path class="cls-2" d="M58.23,24H54.47l-.12.58c-.29,1.34-.56,2.77-.87,4.09l-.75-.13a5.25,5.25,0,0,0-3.51.84l-.52.37a9.41,9.41,0,0,0-1,.83c-.09.08-.12.15-.21.23a10.46,10.46,0,0,0-2.16,3.62,5.86,5.86,0,0,0-.3,3.06,2.53,2.53,0,0,0,1.68,1.87,5.18,5.18,0,0,0,3-.39,4.45,4.45,0,0,0,1.94-1.62h.18c0,.22-.42,1.66-.44,1.84h3.73l1.93-9.47c.13-.64.25-1.26.39-1.9L58.23,24Z"/><path class="cls-2" d="M37.86,39.44a7.19,7.19,0,0,0,4.43-1.55l.25-.22a7.88,7.88,0,0,0,1.14-1.17,8.64,8.64,0,0,0,.9-1.41,7.16,7.16,0,0,0,.79-2.91,3.15,3.15,0,0,0-.6-2.14,3.41,3.41,0,0,0-.72-.7,3.53,3.53,0,0,0-.59-.35,5.66,5.66,0,0,0-2.29-.54,6.93,6.93,0,0,0-2.85.47,9,9,0,0,0-1,.45,7.94,7.94,0,0,0-3.32,3.78,9.67,9.67,0,0,0-.36,1,6.38,6.38,0,0,0-.23,1.2l0,.66a3,3,0,0,0,.51,1.64,4.17,4.17,0,0,0,2.63,1.62,7.28,7.28,0,0,0,1.29.14Z"/><path class="cls-2" d="M26,39.44a7.19,7.19,0,0,0,4.43-1.55,9.13,9.13,0,0,0,1.39-1.39,8,8,0,0,0,1.42-2.72A4.2,4.2,0,0,0,33,30,3.53,3.53,0,0,0,31.64,29a2.22,2.22,0,0,0-.32-.14L31,28.73a6.82,6.82,0,0,0-3.36-.14,6.39,6.39,0,0,0-1.82.66l-.45.24-.22.15c-.15.1-.27.18-.42.3a8.13,8.13,0,0,0-2.46,3.21,7.93,7.93,0,0,0-.37,1,6.38,6.38,0,0,0-.23,1.2l0,.66a3.07,3.07,0,0,0,.51,1.64,3.29,3.29,0,0,0,1.09,1,5.62,5.62,0,0,0,2.83.75Z"/><path class="cls-2" d="M16.91,28.66H15.59l-.3,1.59c0,.12-.08.46-.11.53h1.29l-.57,2.83c0,.24-.09.47-.14.71s-.09.48-.14.71l-.29,1.43c-.16.83-.43,2-.57,2.83l-.57,2.85H18a5.85,5.85,0,0,1,.12-.71l2.13-10.67H23l.32-1.58a3,3,0,0,0,.09-.55H20.62c0-.13.05-.32.07-.44a3.65,3.65,0,0,1,.4-1.22,1.53,1.53,0,0,1,1.4-.75,6.11,6.11,0,0,1,2,.25,4,4,0,0,0,.48.17l.44-2.21a3.33,3.33,0,0,0-.53-.16,5.63,5.63,0,0,0-.59-.14A9.66,9.66,0,0,0,23,24h-.48a5.78,5.78,0,0,0-2.12.44,5.35,5.35,0,0,0-1.57,1,5.85,5.85,0,0,0-.89,1,7,7,0,0,0-1,2.23Z"/><path class="cls-2" d="M37.62,44.05a2.6,2.6,0,0,1-.41.4l-.21.18a13.34,13.34,0,0,1-1.43,1l-.78.43c-.21.09-.34.17-.55.25a13.54,13.54,0,0,1-3.78,1.1L29,47.5l-.79,0a8.46,8.46,0,0,1-2.62-.62,9.17,9.17,0,0,1-2.95-1.9l-.4-.4a8.23,8.23,0,0,1-1.5-2.15c-.15-.3,0-.25-.38-.25a3.58,3.58,0,0,0,.09.45,9.93,9.93,0,0,0,1.13,2.84c.14.23.27.46.43.68l.49.65a13.9,13.9,0,0,0,1.11,1.18,10,10,0,0,0,1.62,1.18,9.74,9.74,0,0,0,4.91,1.34,14.53,14.53,0,0,0,4.81-.63c.19,0,.39-.13.59-.19A13.83,13.83,0,0,0,37.13,49l.23-.12c.46-.27.72-.39,1.21-.72l.68-.48c.18-.13.51-.44.65-.52l.55,1.56c.1.25.18.52.27.79s.1.25.14.38a2,2,0,0,1,.13.41h0c0-.16,1.27-6.46,1.5-7.6a3,3,0,0,1,.11-.51,2.86,2.86,0,0,0-.34,0H36.64l-1.48,0c-.09,0,0,0,0,.07l2,1.55.22.17a.92.92,0,0,1,.21.17Z"/><path class="cls-2" d="M9,39.18h3.76l.26-1.3c.09-.44.17-.88.26-1.32l1-5.26c0-.21.09-.43.12-.65l.39-2H11.08l-.39,1.94C10.43,31.89,9,39,9,39.18Z"/><path class="cls-2" d="M11.42,27.05h3.65c.12,0,.18-.52.22-.72L15.75,24H12.07c-.12,0-.07,0-.12.32l-.47,2.34a2.76,2.76,0,0,0-.06.4Z"/></svg>