<svg id="レイヤー_1" data-name="レイヤー 1" xmlns="http://www.w3.org/2000/svg" viewBox="0 0 66.84 66.84"><defs><style>.cls-1{fill:#595757;}.cls-2{fill:#fff;}</style></defs><rect class="cls-1" width="66.84" height="66.84" rx="5.76"/><path class="cls-2" d="M47.93,27.65A42.85,42.85,0,0,0,44.73,23l0,0h0c0-.09-.21-.26-.25-.34-.55-.72-1.14-6.53-1.23-7s-.21-1-1-1.09c-.59-.09-1.48-.17-2.45-.22a.79.79,0,0,0-.8.43,1.11,1.11,0,0,0-.12.5v1.27s-.05.08-.09.12a.19.19,0,0,1-.29,0c-.47-.34-2.87-2.19-4.17-3-.09,0-.13-.08-.21-.08a1.76,1.76,0,0,0-1.52,0,.19.19,0,0,0-.09,0A41.26,41.26,0,0,0,19,27.7a1,1,0,0,0-.08,1c.25.55,2.74.68,3.11.72s.43.42.43.42a116.49,116.49,0,0,0,.75,12.34.85.85,0,0,0,.8.72l4-.13c.08,0,.21-.08.21-.17v0c-.26-2.69-.34-5-.34-5.14a.4.4,0,0,0-.17-.29,3.09,3.09,0,0,1-1.6-2.74C26,29,26.32,25,26.32,25s.05-.55.55-.51.46.59.46.59c-.16,2.28-.25,6.4-.25,6.4a.76.76,0,1,0,1.52,0c0-3.24.25-6.48.25-6.48a.54.54,0,0,1,.55-.55.42.42,0,0,1,.42.38.28.28,0,0,1,0,.25c-.21,2.78-.25,6.4-.25,6.4s0,.8.75.8.76-.84.76-.84c0-2.69.26-6.4.26-6.4,0-.3.16-.55.5-.55s.46.42.46.55c-.25,2.91-.25,7.37-.21,9.27a3.17,3.17,0,0,1-1.51,2.82.31.31,0,0,0-.13.29c.09,1.77.21,3.75.34,5.14a.18.18,0,0,0,.17.17H34c1.43,0,2,0,3.08,0,.12,0,.16-.08.16-.21.3-2.53.38-4.38.38-4.55s-.21-.21-.21-.21c-.33,0-1.09-.12-1.77-.25a.86.86,0,0,1-.67-.84,19.15,19.15,0,0,1,3.62-12.89,1,1,0,0,1,1-.34c.51.21.64,1.64.64,1.73a101.89,101.89,0,0,1-.43,17.35.23.23,0,0,0,.17.25c.13,0,2.66.13,2.91.09a.89.89,0,0,0,.8-.76,87.15,87.15,0,0,0,.76-12.3.49.49,0,0,1,.42-.42l2.4-.25a.93.93,0,0,0,.72-.42,1.49,1.49,0,0,0-.09-1.06"/><path class="cls-2" d="M16.47,46.62H14.63c-.59,0-.59,0-.71.7s-.12.72.43.72h1.1l-.61,3.55a1.92,1.92,0,0,1-1.58,1.68c-.26.08-.34.18-.34.31a1.37,1.37,0,0,0,.18.57c.19.43.27.49.43.49a3.58,3.58,0,0,0,.53-.1,3.54,3.54,0,0,0,2.39-3.07l.7-4c.06-.84.06-.84-.68-.84m6.24,0c-.74,0-.74,0-.84.62l-.55,3.23C21.18,51.41,20.93,52,20,52s-1.23-.55-1.06-1.39l.53-3.09c.14-.88.12-.88-.65-.88s-.78,0-.88.6l-.56,3.23a2.35,2.35,0,0,0,2.44,3c1.82,0,2.74-.82,3-2.76l.55-3.21c.15-.82.11-.82-.67-.82m3.41,5.3c.6,0,.92-.31.92-.57s-.43-.47-1-.66c-1.12-.34-2.14-.73-2.14-1.94,0-1.41,1.16-2.19,2.63-2.19a15,15,0,0,1,1.76.08c.39,0,.49.19.37.8s-.27.68-.61.66-1-.09-1.62-.09-1,.27-1,.54.31.49,1,.69c1.29.37,2.15.9,2.15,2,0,1.32-1,2.08-2.54,2.14a12.76,12.76,0,0,1-2.23-.12c-.49-.08-.53-.08-.38-.8s.12-.69.59-.65a15.92,15.92,0,0,0,2.06.08m8.14-5.3H30.05c-.59,0-.59,0-.72.72s-.1.72.43.72h1.37l-.77,4.45c-.15.88-.13.88.65.88s.74,0,.84-.61l.8-4.7H34c.59,0,.59,0,.71-.72s.1-.74-.43-.74M41.66,48c.6,0,.6,0,.72-.72s.12-.72-.43-.72h-3c-1.06,0-1,0-1.22,1.07l-.78,4.49c-.2,1.17-.18,1.17.9,1.17h2.94c.62,0,.6,0,.72-.69s.12-.72-.43-.72H38.53l.21-1.29h2.1c.58,0,.58,0,.68-.67s.1-.7-.68-.7H39L39.19,48Zm3.19,2.39,1-2.15c.08-.18.08-.18.21-.18s.12,0,.14.2l.31,2.11-1.62,0Zm2.64-3c-.14-.84-.14-.84-1.35-.84s-1.1,0-1.45.7l-2.5,5.25c-.36.74-.3.82.62.82.71,0,.71,0,1-.67l.39-.9h2.43l.12.9c.11.67.13.67.84.67s.9,0,.74-.88Zm5.95-.82H49.21c-.6,0-.6,0-.72.72s-.1.72.43.72h1.37l-.78,4.45c-.14.88-.12.88.66.88s.73,0,.84-.61l.79-4.7h1.33c.59,0,.59,0,.72-.72s.14-.74-.41-.74"/></svg>