<svg id="レイヤー_1" data-name="レイヤー 1" xmlns="http://www.w3.org/2000/svg" viewBox="0 0 67.85 67.85"><defs><style>.cls-1{fill:#3db060;}.cls-2{fill:#fafcfb;}.cls-3{fill:#fafcfa;}.cls-4{fill:#f8fbfb;}</style></defs><rect class="cls-1" width="67.85" height="67.85" rx="5.85"/><path class="cls-2" d="M16.12,19.81a3.76,3.76,0,0,1,2.37-3.57,3.8,3.8,0,0,1,4.44.92c2.46,2.44,4.91,4.91,7.37,7.36,1,1,2,2,3,3,.5.55.78.47,1.26,0q5.05-5.12,10.17-10.2c1.75-1.75,4-1.92,5.67-.42a3.85,3.85,0,0,1,.13,5.71c-3.4,3.44-6.83,6.85-10.24,10.26-1.92,1.93-3.85,3.84-5.76,5.77-.42.43-.67.57-1.18.05q-8-8-16-16a3.8,3.8,0,0,1-1.23-2.88"/><path class="cls-3" d="M24,48.35c-.75,2.71-2.45,3.95-4.83,3.5a3.72,3.72,0,0,1-3-3.44c0-7.87,0-15.73,0-23.6a.91.91,0,0,1,.09-.23,5.3,5.3,0,0,1,1.31,1.18c2,1.95,3.92,3.93,5.89,5.89.19.18.31.49.66.48a.11.11,0,0,0,0,.14.23.23,0,0,0-.06.31c-.1,5.25-.08,10.51,0,15.77"/><path class="cls-4" d="M51.59,24.63c.17.19.1.42.1.63q0,11.37,0,22.74A3.77,3.77,0,0,1,49,51.77a3.92,3.92,0,0,1-4.52-1.71,4.11,4.11,0,0,1-.58-2.26c0-5,0-10,0-15a1.3,1.3,0,0,1,.38-1l7-7c.1-.1.19-.26.38-.22"/></svg>