<svg id="レイヤー_1" data-name="レイヤー 1" xmlns="http://www.w3.org/2000/svg" viewBox="0 0 66.9 66.9"><defs><style>.cls-1{fill:#595757;}.cls-2{fill:#fff;}</style></defs><rect class="cls-1" width="66.9" height="66.9" rx="5.77"/><path class="cls-2" d="M16.43,39.51c-.21,0-.41,0-.62,0H8.18c-.88,0-.91,0-.92-.95,0-.37,0-.74,0-1.12,0-.63.1-.73.76-.73h9c.26,0,.73-.07.75-.17a4.84,4.84,0,0,0,0-1.37c0-.07-.37-.13-.57-.13H8.56c-.7,0-.78-.09-.78-.76V32.8c0-.66,0-.7.7-.7h8.05c.28,0,.57,0,.85,0s.4-.1.42-.4c.1-1.39.11-1.39-1.25-1.39H8.49c-.65,0-.7-.05-.71-.69,0-.46,0-.92,0-1.38,0-.8,0-.82.8-.82H17c.8,0,.8,0,.8-.77,0-.93,0-.93-.94-.93H8.22c-.92,0-1,0-1-1,0-.41,0-.82,0-1.23s.16-.62.6-.62c.75,0,1.5,0,2.24,0,.47,0,.6-.14.57-.57s0-.64,0-1,.16-.47.5-.47c.65,0,1.31,0,2,0a.58.58,0,0,1,.62.47c.06.2.13.4.18.61.25.94.1.9,1.16.9,3.08,0,6.15,0,9.23,0a.7.7,0,0,0,.52-.37,6,6,0,0,0,.34-1.11.56.56,0,0,1,.6-.49h2c.33,0,.48.16.47.49s0,.64,0,1,.18.58.6.56c.68,0,1.36,0,2,0s.74.13.75.76c0,.44,0,.89,0,1.33,0,.64-.1.73-.76.74H22.1c-1.08,0-1-.08-1,1,0,.72,0,.72.75.72h8.48c.77,0,.8,0,.8.82,0,.47,0,.93,0,1.39s-.18.69-.69.69c-2.74,0-5.47,0-8.21,0-1.33,0-1.11-.16-1.15,1.17,0,.47.14.62.61.62,2.88,0,5.76,0,8.64,0,.76,0,.78,0,.79.78v1.39c0,.66-.08.74-.73.74h-8.8c-.37,0-.51.13-.5.49,0,1.37-.11,1.18,1.1,1.18h8.59c.78,0,.84.06.84.85,0,.38,0,.75,0,1.12,0,.76-.07.84-.82.84H23.05l-.56,0-.07.15c.41.32.79.68,1.22,1A14.42,14.42,0,0,0,30.9,43c.72,0,.76.07.76.82v1.39c0,.73-.12.85-.83.81a18.64,18.64,0,0,1-5.71-1.18,13.3,13.3,0,0,1-5.28-3.58c-.28-.33-.48-.32-.76,0a14.08,14.08,0,0,1-8.56,4.47c-.86.13-1.73.2-2.59.29-.47,0-.69-.17-.68-.65s0-1.14,0-1.71.16-.64.63-.66A14.29,14.29,0,0,0,15,40.8c.52-.33,1-.74,1.47-1.11Z"/><path class="cls-2" d="M35.33,33.63V22.22c0-.94,0-1,.94-1H58.83c.81,0,.82,0,.82.84V42.94a2.9,2.9,0,0,1-2.68,3c-.51.05-1,.08-1.54.08H36.28c-1,0-1,0-1-1Zm3.05-.07h0c0,2.91,0,5.83,0,8.74,0,.49.11.69.65.69,5.62,0,11.23,0,16.85,0,.81,0,.88-.08.88-.9,0-5.72,0-11.44,0-17.17,0-.49-.12-.68-.65-.67h-17c-.7,0-.72,0-.72.72Z"/><path class="cls-2" d="M45.17,27.74c1.5,0,3,0,4.48,0,.48,0,.66-.16.6-.61a.41.41,0,0,1,0-.11c0-1.67-.18-1.44,1.44-1.46h1.17c.32,0,.45.14.45.45s0,.85,0,1.28.12.47.44.44h.16c1.49,0,1.34-.15,1.35,1.34s0,1.49-1.48,1.54c-.43,0-.47.23-.47.58,0,1.83,0,3.66,0,5.49,0,1.38-.25,2.75-.39,4.13a.49.49,0,0,1-.56.5H50.17c-.31,0-.48-.12-.41-.46a39.21,39.21,0,0,0,.49-8.38c0-.46,0-.92,0-1.39s-.14-.47-.48-.46c-.53,0-1.07,0-1.6,0s-.58.21-.66.59c-.36,1.6-.64,3.24-1.12,4.8s-1.22,3.25-1.85,4.87a.65.65,0,0,1-.7.45c-.8,0-1.6,0-2.4,0-.49,0-.58-.15-.35-.59a35.21,35.21,0,0,0,2.69-7c.25-.89.42-1.8.62-2.7.09-.36-.12-.42-.42-.42h-3.3c-.69,0-.77-.08-.78-.77,0-.49,0-1,0-1.49s.23-.64.69-.64c1.53,0,3.06,0,4.58,0Z"/></svg>