<svg id="レイヤー_1" data-name="レイヤー 1" xmlns="http://www.w3.org/2000/svg" viewBox="0 0 66.84 66.84"><defs><style>.cls-1{fill:#595757;}.cls-2{fill:#fff;}</style></defs><rect class="cls-1" width="66.84" height="66.84" rx="5.76"/><path class="cls-2" d="M55.88,54.65a3.68,3.68,0,0,1-3.28,3.71L40.75,60.45C34,61.64,27.2,62.85,20.41,64c-1.48.26-1.26.54-1.55-1.1Q15,41.05,11.15,19.16c-.32-1.77-.4-1.47,1.2-1.75l31.8-5.62c2.72-.48,4.32.64,4.8,3.38q2.19,12.28,4.34,24.58l2.46,14C55.81,54.08,55.85,54.44,55.88,54.65ZM19.38,39.7l-.7-3.89c-.11-.61,0-1.16.69-1.29s1,.36,1.08,1c.19,1.09.39,2.18.58,3.27.08.44.06.91.8.78s.78-.45.65-1.07c-.24-1-.37-2.12-.59-3.17-.14-.68,0-1.22.72-1.35s1,.41,1.06,1c.19,1.09.39,2.18.57,3.28.08.48.15.88.84.74s.73-.38.62-.94c-.24-1.22-.41-2.44-.67-3.65a2.3,2.3,0,0,0-3.64-1.47,1.33,1.33,0,0,1-1.32.2,2.29,2.29,0,0,0-2.87,2.42,41.7,41.7,0,0,0,.73,4.14c0,.18.49.37.75.37S19.18,39.81,19.38,39.7ZM29.6,36.6c.93-1.32,1.8-2.57,2.68-3.81.22-.31.38-.54-.05-.88a3.55,3.55,0,0,0-5.08.82,3.49,3.49,0,1,0,6,3.61c.13-.27.11-.91,0-1-.43-.16-.93-.49-1.3.25A1.77,1.77,0,0,1,29.6,36.6ZM49,31.86c-.16-.93-.33-2.12-.6-3.29,0-.18-.52-.39-.76-.34s-.6.4-.58.6c.06.81.24,1.61.38,2.41.26,1.5-.23,2.47-1.37,2.69s-2.05-.56-2.29-2.06a21.16,21.16,0,0,0-.45-2.4.87.87,0,0,0-.77-.35c-.24,0-.6.42-.58.61a23.89,23.89,0,0,0,.6,3.36,3.18,3.18,0,0,0,3.62,2.28A3.3,3.3,0,0,0,49,31.86ZM34.45,33.21c0,.14,0,.37.07.59.16.93.34,1.86.47,2.8.09.57.43.52.86.47s.69-.24.58-.76c-.18-.86-.32-1.73-.47-2.59a1.87,1.87,0,1,1,3.66-.62c.16.9.28,1.81.5,2.69.05.18.53.38.77.33s.62-.4.6-.59a28,28,0,0,0-.57-3.27,3.3,3.3,0,0,0-3.66-2.41A3.34,3.34,0,0,0,34.45,33.21Z"/><path class="cls-2" d="M16.23,13.81l4.94-3.68L30.84,3c1.87-1.38,3.51-.73,3.9,1.54.3,1.73.6,3.47.93,5.2.11.55,0,.8-.63.91-6.13,1.06-12.26,2.16-18.39,3.25A2.52,2.52,0,0,1,16.23,13.81Z"/><path class="cls-2" d="M28.4,35.77a2,2,0,0,1,2.11-3Z"/></svg>