<svg id="レイヤー_1" data-name="レイヤー 1" xmlns="http://www.w3.org/2000/svg" viewBox="0 0 67.21 67.21"><defs><style>.cls-1{fill:#595757;}.cls-2{fill:#fff;}</style></defs><rect class="cls-1" width="67.21" height="67.21" rx="5.79"/><path class="cls-2" d="M50.31,22.37a4.5,4.5,0,0,0-7.22-.5l-1.61-1.22c.4-.16,1.24-.53,1.29-.76s-.39-.23-1.05-.28l3-2.76a.06.06,0,0,0,0-.07L44,15.33a.05.05,0,0,0-.08,0h0l-3.14,2.85c-.94,0-2.61.13-3.09-.17-.77-.49-.85-1.2-1.14-1.45s-.6-.29-.67-.5a0,0,0,0,1,0,0h0c.15,0,1-.27,1.16-.86a2.23,2.23,0,0,0-.26-1.47,0,0,0,0,1,0,0l.88-.77a0,0,0,0,0,0,0h0L36.32,13h0a1.3,1.3,0,0,0-1.63-.29,1.4,1.4,0,0,0-1,1.55A1.85,1.85,0,0,0,34.83,16s0,0,0,0a31.61,31.61,0,0,1-8.11,4.91.06.06,0,0,0,0,.09,0,0,0,0,0,0,0A9.15,9.15,0,0,0,32,20.7h0v0c-.1.4-.66,2.72.23,3.45l.05,0-1.19.86a.3.3,0,0,0-.08.42.32.32,0,0,0,.28.13l.62-.07A1.77,1.77,0,0,0,33,25.05l.2-.2,1.73,1.29L34.65,28a4.48,4.48,0,1,0,3.72,2.35l.44-.28a1.09,1.09,0,0,0,1.53-.1,1.07,1.07,0,0,0,.24-1l1.83-.54a.29.29,0,0,0,.21-.35h0V28a.3.3,0,0,0-.29-.24H40.75l-.47-1.06.95-5.45,1.5,1.11a4.5,4.5,0,1,0,7.58,0ZM37.84,19.12l2.12,0,.29.52c-.49,0-1,.06-1.5.12s-.79-.41-.92-.57a0,0,0,0,1,0,0Zm-3.21,3.17A14.9,14.9,0,0,0,36,19.69a0,0,0,0,1,0,0h0A5.73,5.73,0,0,0,38.26,21h0l1.86-.58.41.32L38.6,22.51a1.36,1.36,0,0,0-.76-.34,14.42,14.42,0,0,0-3.19.16s0,0,0,0Zm4.81,5.85a1.08,1.08,0,0,0-.36.11l-1.33-1s0,0,0,0l.66-1.37s0,0,0,0h0l1.09,1.71Zm-2.82-1.49L35.71,26l1.74-1.6Zm0-2.35-1.41,1.3-1.43-1.05a17,17,0,0,0,2.85-.24Zm-1.14,2.25.93.7-.11.3a.42.42,0,0,0,.25.54h0l1.94.71.06,0a1.16,1.16,0,0,0,0,.69l-.43.28a4.52,4.52,0,0,0-2.8-1.76ZM35.18,29a3.58,3.58,0,0,1,2.12,1.35L34.81,31.9Zm1.19,6.51a3.57,3.57,0,1,1-1.8-6.57l-.44,3.56a.29.29,0,0,0,.27.33.31.31,0,0,0,.19,0l3-1.94a3.59,3.59,0,0,1-1.25,4.67ZM39,23.8a1.94,1.94,0,0,0-.09-.76l1.64-1.51-.71,4.18Zm9.42,4a3.57,3.57,0,0,1-5-4.88L46.31,25a.32.32,0,0,0,.35,0,.27.27,0,0,0,.08-.07.31.31,0,0,0-.06-.43l-2.83-2.11a3.57,3.57,0,1,1,5.32,4.76,3.33,3.33,0,0,1-.73.62Z"/><path class="cls-2" d="M39.35,17.45l1,.06a.24.24,0,0,0,.13-.05L43.11,15a0,0,0,0,0,0-.06.05.05,0,0,0,0,0l-1-.06a.28.28,0,0,0-.2.08l-2.55,2.39a0,0,0,0,0,0,.07l0,0ZM25.67,32.65l-1.66,1-1.57-1.28.5,2-1.61,1.07,2,.21.57,1.94.72-1.83,2,.13L25,34.52Zm1.92-7.07-1.65,1-1.57-1.28.5,2-1.61,1.07,2,.21.57,1.95.72-1.84,2,.13L27,27.45Zm-7.71,3.79.64-1.86-1.65,1L17.3,27.23l.5,2-1.61,1.07,2,.21.57,1.94.72-1.83,2,.13ZM6.08,54.48V45.72H9.72a2.67,2.67,0,0,1,0,5.33H7.47v3.43Zm1.39-7.57v3H9.66a1.51,1.51,0,0,0,0-3Zm11.87,5.73,1.32-.24a1.26,1.26,0,0,0,1.4,1.09c.22,0,1.33-.09,1.33-.88,0-1.51-3.86,0-3.86-2.65a2.17,2.17,0,0,1,2.41-1.88c1.35,0,2.49.57,2.68,2l-1.32.25c-.09-.78-.57-1.07-1.32-1.07s-1.11.35-1.11.74.48.64,1.22.72c1.43.15,2.63.46,2.63,1.93s-1.15,2-2.66,2a2.45,2.45,0,0,1-2.72-2m5.73-3.42v-1h1.08V46.36H27.5v1.82h1.3v1H27.5v3.57c0,.49.14.65.57.65l.59,0v1.08s-.48,0-1,0c-1.18,0-1.56-.63-1.56-1.84V49.22ZM33.48,51c0-1-.21-1.77-1.22-1.77S31,50,31,51v3.5H29.7V48.2h1.22l.12.68a2.15,2.15,0,0,1,1.67-.81,1.91,1.91,0,0,1,1.76,1,2.26,2.26,0,0,1,1.89-1c1.71,0,2.24,1,2.24,2.92V54.5H37.27V51c0-.95-.26-1.78-1.22-1.78S34.83,50,34.83,51v3.5H33.49ZM41,50.36c-.44-.07-.89-.17-1.34-.25a2.35,2.35,0,0,1,2.61-2c1.78,0,2.7.86,2.7,2.59v2.19c0,.37.07.58.33.58a1.26,1.26,0,0,0,.33,0v1.1a3.08,3.08,0,0,1-.8.1,1,1,0,0,1-1.1-.9,2.63,2.63,0,0,1-2,.94c-1.46,0-2.33-.82-2.33-2,0-1,.91-1.88,2.57-1.88h1.62v-.38c0-.49-.2-1.14-1.36-1.14A1.11,1.11,0,0,0,41,50.36m2.63,1.69v-.31H42.19c-1.11,0-1.33.57-1.33.87s.28.86,1.11.86A1.57,1.57,0,0,0,43.68,52m-28.1,2.58a3.28,3.28,0,1,1,3.28-3.28,3.27,3.27,0,0,1-3.28,3.28m0-5.3a2,2,0,1,0,2,2h0a2,2,0,0,0-2-2M54,52.3l1.23.36a2.82,2.82,0,0,1-2.86,2,3,3,0,0,1-3-3.27c0-2,1.14-3.28,2.9-3.28s2.84,1.17,2.84,3.08q0,.3,0,.6H50.83a1.63,1.63,0,0,0,3.2.56m-.29-1.57c0-.94-.48-1.53-1.41-1.53a1.47,1.47,0,0,0-1.44,1.53Zm2,1.91,1.32-.24a1.24,1.24,0,0,0,1.39,1.09c.22,0,1.33-.09,1.33-.88,0-1.51-3.86,0-3.86-2.65,0-1.07,1.07-1.88,2.42-1.88s2.49.57,2.67,2c-.44.07-.88.16-1.31.24-.09-.78-.58-1.07-1.32-1.07s-1.11.35-1.11.74.47.64,1.22.72c1.43.15,2.62.46,2.62,1.93s-1.14,2-2.66,2a2.44,2.44,0,0,1-2.71-2M45.47,49.22v-1h1.08V46.36h1.34v1.82H49.2v1H47.89v3.57c0,.49.15.65.59.65l.6,0v1.08s-.48,0-1,0c-1.18,0-1.57-.63-1.57-1.84V49.22Z"/></svg>