<svg id="レイヤー_1" data-name="レイヤー 1" xmlns="http://www.w3.org/2000/svg" viewBox="0 0 67.21 67.21"><defs><style>.cls-1{fill:#595757;}.cls-2{fill:#fff;}</style></defs><rect class="cls-1" width="67.21" height="67.21" rx="5.79"/><path class="cls-2" d="M33.66,46.47a.21.21,0,0,1-.08-.06,94,94,0,0,1-5.8-8.13,7.12,7.12,0,0,1-1.24-2.7c.27-.72,5-1.11,6.45-.46.44.2.43.46.43.61,0,.65,0,2.41,0,2.41a.66.66,0,0,0,1.31,0V33.76h0c0-.38-.41-.47-.49-.49h-4c-3.65,0-4.47.15-5.09-.26-1.34-.88-3.54-6.81-3.59-10.14a12.08,12.08,0,0,1,24.09-1.36h0c.13,1.46-7.91,1.77-9.5,1.35a.46.46,0,0,1-.31-.43c0-1.11,0-4.23,0-4.23a.65.65,0,0,0-.65-.65h0a.65.65,0,0,0-.66.66V24a.48.48,0,0,0,.4.47h5c2.66,0,3.78.31,4.52.87a2,2,0,0,1,.52,2C43.47,35.7,34,46,33.66,46.47Z"/><path class="cls-2" d="M50.93,50.43h1.5l-2.06,3.85v1.94H48.94V54.37l-2.19-3.94h1.59l1,1.85a7,7,0,0,1,.3.68,7,7,0,0,1,.3-.68l1-1.85Z"/><path class="cls-2" d="M43,54.27V53h2.66v2.6l-.06,0a3.67,3.67,0,0,1-2.2.67,2.92,2.92,0,0,1-3.13-3,2.86,2.86,0,0,1,3-3,2.66,2.66,0,0,1,2.11.81l.09.11-1,1-.11-.11a1.37,1.37,0,0,0-1.12-.46,1.51,1.51,0,0,0-1.48,1.65A1.55,1.55,0,0,0,43.43,55a2.5,2.5,0,0,0,.92-.15v-.56Z"/><path class="cls-2" d="M35.78,54.27V53h2.65v2.6l0,0a3.69,3.69,0,0,1-2.2.67,2.91,2.91,0,0,1-3.13-3,2.86,2.86,0,0,1,3-3,2.66,2.66,0,0,1,2.11.81l.09.11-1,1-.1-.11A1.4,1.4,0,0,0,36,51.68a1.51,1.51,0,0,0-1.49,1.65A1.55,1.55,0,0,0,36.18,55a2.57,2.57,0,0,0,.92-.15v-.56Z"/><polygon class="cls-2" points="29.65 56.22 29.65 50.43 31.08 50.43 31.08 56.22 29.65 56.22 29.65 56.22"/><path class="cls-2" d="M25.75,52.85l.83-2.3H28l-2.1,5.84h-.32l-1.27-2.74c-.06-.12-.12-.28-.18-.42a4.08,4.08,0,0,1-.17.42l-1.33,2.74h-.31l-2.14-5.84H21.7l.83,2.3c.06.15.11.33.16.49a3.72,3.72,0,0,1,.2-.5L24,50.5h.31l1.11,2.34c.07.15.14.33.2.5,0-.16.1-.34.15-.49Z"/><path class="cls-2" d="M17.47,52.65c1,.42,1.59.89,1.59,1.92s-.79,1.72-2,1.72a2.33,2.33,0,0,1-2.19-1.23l-.07-.13L16,54.25l.08.13A1.07,1.07,0,0,0,17,55c.37,0,.62-.16.62-.41s-.18-.37-.73-.61l-.28-.12A1.91,1.91,0,0,1,15.17,52,1.66,1.66,0,0,1,17,50.36a1.84,1.84,0,0,1,1.74,1l.07.13-1.13.73-.08-.14c-.19-.34-.37-.41-.6-.41a.34.34,0,0,0-.39.33c0,.24.12.34.61.55l.28.12Z"/></svg>