<svg id="レイヤー_1" data-name="レイヤー 1" xmlns="http://www.w3.org/2000/svg" viewBox="0 0 66.21 66.21"><defs><style>.cls-1{fill:#f44f12;}.cls-2{fill:#fff;}</style></defs><rect class="cls-1" width="66.21" height="66.21" rx="5.71"/><path class="cls-2" d="M32.93,38.83l-1.33.24-1,1.3V37.92l-1.06.19v5.11L30.63,43V41.76l.24-.31.83,1.34L33,42.53c-.56-.8-.84-1.21-1.39-2C32.14,39.83,32.4,39.5,32.93,38.83Zm-1.1,3.69-.92-1.45-.5.63v1.11l-.61.12V38.31l.61-.1V41l1.29-1.7.69-.13-1.06,1.36,1.26,1.85Z"/><path class="cls-2" d="M33.13,42.51l1.06-.21V38.59l-1.06.2ZM34,38.88V42.1l-.6.12V39Z"/><path class="cls-2" d="M33.13,38.5l1.06-.19v-1l-1.06.19Zm.83-.94v.55l-.6.11v-.55Z"/><path class="cls-2" d="M36.05,37.2,35,37.39v1.06l-.54.1v.87l.54-.1v1.92a1.15,1.15,0,0,0,.08.46.47.47,0,0,0,.23.25.65.65,0,0,0,.35.07,2.56,2.56,0,0,0,.44-.06,4.65,4.65,0,0,0,.59-.15l0,0v-.93l-.46.09a.2.2,0,0,1-.16,0s0,0,0-.23V39.12l.66-.12v-.87l-.66.12Zm-1.37,1.94v-.4l.54-.1v-1l.6-.11v1.05l.67-.12v.39l-.67.12v1.84c0,.05,0,.1,0,.16a.43.43,0,0,0,.05.16.22.22,0,0,0,.12.11.48.48,0,0,0,.24,0l.25,0v.47l-.2.05a1.8,1.8,0,0,1-.22.06,1.76,1.76,0,0,1-.43,0,.44.44,0,0,1-.25-.07.38.38,0,0,1-.13-.21,1.19,1.19,0,0,1,0-.36V39Z"/><path class="cls-2" d="M39.26,39.8c0,.11,0,.21-.07.29h0a1.22,1.22,0,0,1-.1.23.52.52,0,0,1-.17.16.57.57,0,0,1-.26.1.51.51,0,0,1-.28,0,.4.4,0,0,1-.19-.15.83.83,0,0,1-.11-.29,2.11,2.11,0,0,1,0-.38,1.84,1.84,0,0,1,0-.41,1.23,1.23,0,0,1,.11-.34.83.83,0,0,1,.19-.26.72.72,0,0,1,.32-.13.37.37,0,0,1,.38.08.62.62,0,0,1,.13.38v0l1.06-.2v0a1.7,1.7,0,0,0-.12-.57,1.09,1.09,0,0,0-.32-.41,1.06,1.06,0,0,0-.48-.22,1.59,1.59,0,0,0-.65,0,2.23,2.23,0,0,0-.72.27,2.37,2.37,0,0,0-.55.5,2.31,2.31,0,0,0-.35.68,2.63,2.63,0,0,0-.13.8,2.19,2.19,0,0,0,.12.75,1.35,1.35,0,0,0,.34.54,1.12,1.12,0,0,0,.53.3,1.74,1.74,0,0,0,.72,0,2.19,2.19,0,0,0,.57-.21,1.9,1.9,0,0,0,.88-.94,2.17,2.17,0,0,0,.18-.75v0l-1,.19Zm.78.05a1.51,1.51,0,0,1-.13.46,1.84,1.84,0,0,1-.3.43,1.53,1.53,0,0,1-.42.34,2,2,0,0,1-.53.19,1.46,1.46,0,0,1-.55,0,1,1,0,0,1-.47-.21,1.07,1.07,0,0,1-.33-.46,1.75,1.75,0,0,1-.13-.74,2.35,2.35,0,0,1,.09-.64,2.09,2.09,0,0,1,.29-.6,1.87,1.87,0,0,1,.47-.46,1.75,1.75,0,0,1,.67-.27,1.34,1.34,0,0,1,.89.1,1,1,0,0,1,.44.71l-.63.12a.66.66,0,0,0-.23-.4.61.61,0,0,0-.47-.07,1,1,0,0,0-.52.26,1.59,1.59,0,0,0-.26.43,1.81,1.81,0,0,0-.09.44c0,.14,0,.24,0,.3a1.71,1.71,0,0,0,.07.55.81.81,0,0,0,.2.33.52.52,0,0,0,.27.15.76.76,0,0,0,.3,0,1,1,0,0,0,.53-.3,1.21,1.21,0,0,0,.25-.55Z"/><path class="cls-2" d="M42.68,36.94a1.59,1.59,0,0,0-.9.51V35.92l-1.06.19V41l1.06-.21V39c0-.11,0-.22,0-.33a1.4,1.4,0,0,1,.09-.29.67.67,0,0,1,.19-.22.59.59,0,0,1,.29-.12.46.46,0,0,1,.27,0,.35.35,0,0,1,.13.14.42.42,0,0,1,0,.2c0,.08,0,.15,0,.21v2l1.05-.21V38a1.11,1.11,0,0,0-.31-.87A1,1,0,0,0,42.68,36.94ZM41.55,39v1.62l-.6.12V36.3l.6-.1v1.85l.07-.1a2.66,2.66,0,0,1,.47-.52,1.32,1.32,0,0,1,.59-.26.86.86,0,0,1,.73.13,1,1,0,0,1,.25.72v2.17l-.61.12v-1.9a1.42,1.42,0,0,0,0-.19A.55.55,0,0,0,43,38a.41.41,0,0,0-.2-.19.64.64,0,0,0-.4,0,1,1,0,0,0-.38.15,1,1,0,0,0-.26.28,1.24,1.24,0,0,0-.14.37A2.87,2.87,0,0,0,41.55,39Z"/><path class="cls-2" d="M46.91,37.72c0-.06,0-.13,0-.22a.75.75,0,0,0-.11-.28h0a.61.61,0,0,0-.24-.21.74.74,0,0,0-.43,0,1.1,1.1,0,0,0-.63.35,1.21,1.21,0,0,0-.27.72v.05l1.73-.34Zm-1.49.1a1.12,1.12,0,0,1,0-.13.52.52,0,0,1,.11-.19.64.64,0,0,1,.19-.17.67.67,0,0,1,.31-.12.46.46,0,0,1,.4.07.75.75,0,0,1,.18.3Z"/><path class="cls-2" d="M47.4,36.72h0a1.13,1.13,0,0,0-.53-.38,1.47,1.47,0,0,0-.79,0,1.93,1.93,0,0,0-.7.27,2.1,2.1,0,0,0-.57.5,2.16,2.16,0,0,0-.36.67,2.48,2.48,0,0,0-.14.82,2.36,2.36,0,0,0,.08.56,1.29,1.29,0,0,0,.28.53,1.23,1.23,0,0,0,.54.36,1.68,1.68,0,0,0,.87,0,2,2,0,0,0,.63-.22,2.33,2.33,0,0,0,.49-.37,2.15,2.15,0,0,0,.33-.46,2,2,0,0,0,.19-.49v-.05l-1.09.21v0a.53.53,0,0,1-.06.14l-.08.12-.15.12a1.15,1.15,0,0,1-.26.08.58.58,0,0,1-.35,0,.4.4,0,0,1-.19-.14.5.5,0,0,1-.1-.19l0-.13,2.36-.46v-.07a3.21,3.21,0,0,0-.09-.78A1.52,1.52,0,0,0,47.4,36.72Zm0,2a1.5,1.5,0,0,1-.29.48,1.54,1.54,0,0,1-.39.34,1.44,1.44,0,0,1-.38.18l-.28.08a1.45,1.45,0,0,1-.72,0,1,1,0,0,1-.47-.27,1.29,1.29,0,0,1-.27-.47,2.1,2.1,0,0,1-.08-.56A2,2,0,0,1,45,37.22a2.06,2.06,0,0,1,.49-.44,1.61,1.61,0,0,1,.62-.24,1.34,1.34,0,0,1,.67,0,.92.92,0,0,1,.44.3,1.46,1.46,0,0,1,.26.53,3,3,0,0,1,.09.63l-2.36.45v.05c0,.06,0,.14,0,.25a.94.94,0,0,0,.11.32.64.64,0,0,0,.27.24.81.81,0,0,0,.5,0,1,1,0,0,0,.44-.19.91.91,0,0,0,.27-.32Z"/><path class="cls-2" d="M51.05,35.72a1,1,0,0,0-.89-.16,1.63,1.63,0,0,0-.9.5v-.24L48.2,36v3.51l1.06-.21V37.52c0-.11,0-.22,0-.32a.85.85,0,0,1,.1-.28.55.55,0,0,1,.18-.22.7.7,0,0,1,.3-.12.36.36,0,0,1,.26,0,.27.27,0,0,1,.13.13.38.38,0,0,1,0,.19c0,.08,0,.14,0,.2v2l1.06-.21V36.57a1.07,1.07,0,0,0-.32-.85Zm-2,1.84v1.57l-.6.12v-3l.6-.12v.56l.07-.09a2.85,2.85,0,0,1,.47-.5,1.39,1.39,0,0,1,.59-.27.9.9,0,0,1,.73.13.92.92,0,0,1,.25.7v2.1l-.61.12V37a1.42,1.42,0,0,0,0-.19.55.55,0,0,0-.07-.24.39.39,0,0,0-.2-.18.61.61,0,0,0-.39,0,1,1,0,0,0-.39.15.84.84,0,0,0-.26.27,1.29,1.29,0,0,0-.14.36A2.86,2.86,0,0,0,49,37.56Z"/><path class="cls-2" d="M34,49.84l2.83-.64v-5L34,45.7Z"/><path class="cls-2" d="M34,51.93l2.83-.66V49.6L34,50.25Z"/><path class="cls-2" d="M32.68,46.37v3.76l.91-.21v-4l-.91.47Z"/><path class="cls-2" d="M41.38,48.36V42.6l-1.14-.11-3.08,1.56v7.13l.55-.13V48.87c.53-.69.79-1,1.32-1.72l.26-.34.26.22,1.33,1.12v2.16l.5-.12,1.32-.31A1.42,1.42,0,0,1,41.38,48.36Zm-2.28-2-.37.09V46L39.1,46Zm0-.79-.37.08v-.41l.37-.07Zm.75.63-.37.08v-.4l.37-.08Zm0-.79-.37.08v-.4l.37-.08Z"/><path class="cls-2" d="M41.75,42.63v5.64a1.12,1.12,0,0,0,1.42,1.17v.33l1.25-.29A1.41,1.41,0,0,1,43.1,48a2.43,2.43,0,0,1,1.78-2.29A1.41,1.41,0,0,1,46.66,47l1.15-.26V43.16h0C45.79,43,43.77,42.82,41.75,42.63Z"/><path class="cls-2" d="M44.88,46.08a1.92,1.92,0,0,0-1.4,1.6l2.8-.63A1.11,1.11,0,0,0,44.88,46.08Z"/><path class="cls-2" d="M32.68,52.23l.91-.21V50.33l-.91.21Z"/><path class="cls-2" d="M43.48,48.07a1.1,1.1,0,0,0,1.4,1,1.74,1.74,0,0,0,1-.66l.27.21a2.62,2.62,0,0,1-.79.67l2.45-.58V47.09l-1.33.3Z"/><path class="cls-2" d="M38.08,51l.64-.15.94-.22.84-.2V48.75l-2.42.56Z"/><path class="cls-2" d="M38.12,48.9l2.35-.53-1.18-1Z"/><path class="cls-2" d="M17.54,27.43a.73.73,0,0,1-.71-.6.71.71,0,0,1,.59-.82l4-.66a.7.7,0,0,1,.83.58.73.73,0,0,1-.59.83l-4,.66Z"/><path class="cls-2" d="M21,31.31a1.5,1.5,0,0,1-.79-.22l-2.43-1.47a2.58,2.58,0,0,1-1.18-2.84l3.16-12.9-.16-2.16A.72.72,0,1,1,21,11.6l1.48,18.08a1.52,1.52,0,0,1-.72,1.41A1.5,1.5,0,0,1,21,31.31Zm-.89-12.82L18,27.12a1.17,1.17,0,0,0,.53,1.28L21,29.87Z"/><path class="cls-2" d="M46.42,27a.67.67,0,0,1-.24,0L41.47,25.3A2.4,2.4,0,0,1,40,22.47l3-12.08a.72.72,0,1,1,1.39.34l-3,12.08A1,1,0,0,0,42,24l4.71,1.68A.72.72,0,0,1,46.42,27Z"/><path class="cls-2" d="M24.86,58.75a4.18,4.18,0,0,1-2.3-.68L12.39,51.35a4.21,4.21,0,0,1-1.89-3.56l.15-13.69a11,11,0,0,1,.58-3.41l7.28-21.6a2.63,2.63,0,0,1,5.06.28l2.82,13,2.92-.49a2.2,2.2,0,0,1,2.2.95l.4.6a.22.22,0,0,0,.21.09l3.59-.6a1.19,1.19,0,0,0,.92-.8L41.41,6.94a2.55,2.55,0,0,1,2.42-1.81,2.65,2.65,0,0,1,2.49,1.72l8.82,24.7A7.64,7.64,0,0,1,55.58,34l.13,15.49a2.73,2.73,0,0,1-2.11,2.68L25.79,58.64A3.69,3.69,0,0,1,24.86,58.75ZM21,8.73a1.16,1.16,0,0,0-1.14.82L12.59,31.14a9.41,9.41,0,0,0-.51,3l-.15,13.7a2.77,2.77,0,0,0,1.25,2.34l10.17,6.72a2.73,2.73,0,0,0,2.12.38l27.81-6.46a1.3,1.3,0,0,0,1-1.27L54.14,34a5.93,5.93,0,0,0-.35-2L45,7.33a1.16,1.16,0,0,0-1.11-.77,1.15,1.15,0,0,0-1.09.81L38,22.58a2.57,2.57,0,0,1-2,1.78l-3.6.6a1.64,1.64,0,0,1-1.63-.71l-.4-.59a.77.77,0,0,0-.78-.34l-2.85.48,1.22,5.64a.59.59,0,0,0,.67.45L34.17,29a.48.48,0,0,0,.23-.13.46.46,0,0,0,.08-.25,1.73,1.73,0,0,1,1.41-1.88l3-.5a2.14,2.14,0,0,1,2.11.9l.21.31a.6.6,0,0,0,.28.22.7.7,0,0,0,.35.05l3.35-.56a.78.78,0,0,0,.63-.9l-3-16.54a.71.71,0,0,1,.58-.83.73.73,0,0,1,.83.58L47.2,26a2.16,2.16,0,0,1-.36,1.66,2.2,2.2,0,0,1-1.44.91l-3.35.56A2,2,0,0,1,40.9,29a2.13,2.13,0,0,1-.9-.73l-.21-.31a.7.7,0,0,0-.69-.3l-3,.5a.27.27,0,0,0-.23.28,1.84,1.84,0,0,1-.39,1.33,1.81,1.81,0,0,1-1.1.65l-5.59.93a2,2,0,0,1-2.31-1.56L22.17,9.68a1.17,1.17,0,0,0-1.1-.95Z"/><path class="cls-2" d="M35.27,31a.71.71,0,0,1-.71-.68l-.09-1.85a1.7,1.7,0,0,1,1.42-1.76l3-.5a2.14,2.14,0,0,1,2.11.9l1.14,1.66a.72.72,0,0,1-1.18.81l-1.14-1.66a.7.7,0,0,0-.69-.3l-3,.5a.27.27,0,0,0-.23.28L36,30.24a.72.72,0,0,1-.68.75Z"/><path class="cls-2" d="M24.86,55.45a.71.71,0,0,1-.72-.71l-.07-16.06a.72.72,0,0,1,.72-.72h0a.71.71,0,0,1,.71.71l.07,16.06a.71.71,0,0,1-.71.72Z"/></svg>