<svg id="レイヤー_1" data-name="レイヤー 1" xmlns="http://www.w3.org/2000/svg" viewBox="0 0 66.21 66.21"><defs><style>.cls-1{fill:#00101d;}.cls-2{fill:#fff;}.cls-2,.cls-3{fill-rule:evenodd;}.cls-3{fill:#7bbd46;}</style></defs><rect class="cls-1" width="66.21" height="66.21" rx="5.71"/><path class="cls-2" d="M49.43,31.4H47.52V22.05h1.91V23.1A2.61,2.61,0,0,1,51.72,22h.58v1.87h-.59c-1.61,0-2.28.85-2.28,2.39V31.4ZM13.89,18.58H16v7.83a3.15,3.15,0,1,0,6.28,0V18.58h1.94V31.4H22.23V30.24A5,5,0,0,1,19,31.66c-2.61.09-5.06-2-5.06-5.51V18.58Zm13.8,12.8h-1.9V18.59h1.9v4.6a5.09,5.09,0,0,1,3.51-1.28,4.61,4.61,0,0,1,4.72,4.63A5,5,0,0,1,31,31.7a4.3,4.3,0,0,1-3.34-1.44v1.12Zm3.18-7.77a3.19,3.19,0,1,0,3.18,3.19,3.19,3.19,0,0,0-3.18-3.19Zm15.38,3.78H38.71A3.29,3.29,0,0,0,41.84,30a3.54,3.54,0,0,0,2.69-1.43l1.29,1c-1.34,2.4-5.22,2.56-7.25,1a4.61,4.61,0,0,1-1.83-3.94,4.89,4.89,0,0,1,5.07-4.78c2.38,0,4.66,1.73,4.44,5.56Zm-1.93-1.51c-.23-2.79-4.87-3.4-5.59,0Z"/><path class="cls-3" d="M16.43,45.25V42.1h6.4V39.93h-6.4V36.78H23V34.62H14v12.8H23V45.25ZM52,41h-2.4a1.35,1.35,0,0,0-.51-.81,2.81,2.81,0,0,0-1.45-.58c-.85-.08-1.82.35-1.84.87,0,.32.32.67,1.27.95,1.6.46,3.64.26,4.75,1.72,1.31,1.7-.06,4.39-3.83,4.5-2.25.07-4.61-.91-4.92-3.31h2.38a2.32,2.32,0,0,0,.87,1c.82.51,3.26.61,3.42-.57a.52.52,0,0,0-.28-.5,5.66,5.66,0,0,0-1.89-.53c-3-.42-4.1-1.39-4.31-2.63a2.46,2.46,0,0,1,.24-1.58,3.58,3.58,0,0,1,.68-.88,5,5,0,0,1,3.52-1.11c1.85.06,4.21,1.07,4.3,3.45Zm-9.57,4.25v2.16H39.81a2.39,2.39,0,0,1-2.54-2.61V40.1H35.46V38h1.81V35.23H39.7V38h2.74V40.1H39.7v4.09c0,.89.31,1,1.16,1ZM32,38.74v-.8h2.48v9.44H32V46.5a4.92,4.92,0,0,1-3.27,1.11,5,5,0,1,1,.37-9.92A4.6,4.6,0,0,1,32,38.74ZM29.13,39.8A2.84,2.84,0,1,0,32,42.64,2.84,2.84,0,0,0,29.13,39.8Z"/></svg>