<svg id="レイヤー_1" data-name="レイヤー 1" xmlns="http://www.w3.org/2000/svg" viewBox="0 0 66.9 66.9"><defs><style>.cls-1{fill:#d8364a;}.cls-2{fill:#fff;}</style></defs><rect class="cls-1" width="66.9" height="66.9" rx="5.77"/><path class="cls-2" d="M57.73,33.05V9.32h-15V29.83a9.34,9.34,0,0,1-5.34,8.43V57.58a24.3,24.3,0,0,0,20.39-24C57.74,33.42,57.74,33.24,57.73,33.05Z"/><path class="cls-2" d="M25.07,33.6a9.29,9.29,0,0,1-.79-3.77V9.32H9.17V33.6a24.3,24.3,0,0,0,20.44,24V38.26A9.28,9.28,0,0,1,25.07,33.6Z"/><polygon class="cls-2" points="26.75 26.32 29.59 26.32 29.59 9.62 29.59 9.32 26.75 9.32 26.75 10.25 26.75 26.32"/><polygon class="cls-2" points="32.06 26.32 34.91 26.32 34.91 9.36 34.91 9.32 33.45 9.32 32.06 9.32 32.06 9.36 32.06 26.32"/><polygon class="cls-2" points="37.37 26.32 40.22 26.32 40.22 10.27 40.22 9.32 37.37 9.32 37.37 9.63 37.37 26.32"/></svg>