<svg id="レイヤー_1" data-name="レイヤー 1" xmlns="http://www.w3.org/2000/svg" viewBox="0 0 66.84 66.84"><defs><style>.cls-1{fill:#4ea8d2;}.cls-2{fill:#fff;}</style></defs><rect class="cls-1" width="66.84" height="66.84" rx="5.76"/><path class="cls-2" d="M28.36,25.9H27.22c-.42,0-.57.43-.52.86C27.13,32.4,25.89,39,24.47,39s-1.37-3.09-1.37-5.84V28.42c0-.52,0-.62-.57-.67a5.53,5.53,0,0,0-1.52,0c-.43,0-.52.48-1,1.52-2.23,5.31-4.41,9.49-4.41,9.49a34.24,34.24,0,0,1,1-10.91c0-.43,0-.67-.48-.67a4.77,4.77,0,0,0-2.08.34,1.64,1.64,0,0,0-.72,1.13,30.53,30.53,0,0,0-.42,11.15,1.11,1.11,0,0,0,.61,1.09,7.47,7.47,0,0,0,2.14.34,1.57,1.57,0,0,0,1.57-.91,61.93,61.93,0,0,0,3.13-6.26c0,4,.71,7.17,3.55,7.17,3.75,0,6.22-9.49,6.22-13.81,0-1.19-.62-1.37-1.71-1.37"/><path class="cls-2" d="M34,39.52c-.81,0-1.38-.71-1.38-2.14,0-2.7.95-5.59,2.7-5.59h.53c0,1.56,0,2.56.8,3.08-.38,2.37-1.42,4.36-2.61,4.36m19.36-6.64c.66,0,1.14,0,1.28-.85a.57.57,0,0,0-.46-.66H51.32s.33-1.61.48-2.23a.62.62,0,0,0-.52-1,6.67,6.67,0,0,0-1.67,0,.51.51,0,0,0-.56.42c0,.67-.34,1.48-.48,2.52H47.1c-.33,0-.47,0-.57.47a4.41,4.41,0,0,0,0,1.09c0,.43.33.43.67.43h1.13c0,.57-.38,2.18-.47,3.13-.62,2-1.9,3.56-3,3.56s-1.09-.38-1.09-1.56A24,24,0,0,1,44.73,32,15.86,15.86,0,0,0,46,27.28a.77.77,0,0,0-.57-.86,5,5,0,0,0-2,0,1,1,0,0,0-.62.91c-.28,1.23-.71,3.41-1,5.36a4.17,4.17,0,0,1-2.33,1.51,3.41,3.41,0,0,0-3.15-3.65,5,5,0,0,0-.55,0,6.32,6.32,0,0,0-6,6.62.91.91,0,0,1,0,.17,3.62,3.62,0,0,0,3,4.1,3.09,3.09,0,0,0,.91,0c2.8,0,4.75-1.89,5.6-5.45a4.81,4.81,0,0,0,2-1.09,25.88,25.88,0,0,0-.43,3.51c0,1.94.86,3,2.85,3A4.75,4.75,0,0,0,47.72,39a2.51,2.51,0,0,0,2.5,2.53l.3,0A4.71,4.71,0,0,0,54.26,39c.24-.33.38-.62.24-.76s-.81-.47-1,0c-.61,1.14-1.32,1.61-2.08,1.61s-1.05-.33-1.05-1.37A45.79,45.79,0,0,1,51,32.59h2.37"/></svg>