<svg id="レイヤー_1" data-name="レイヤー 1" xmlns="http://www.w3.org/2000/svg" viewBox="0 0 66.84 66.84"><defs><style>.cls-1{fill:#595757;}.cls-2{fill:#fff;}</style></defs><rect class="cls-1" width="66.84" height="66.84" rx="5.76"/><path class="cls-2" d="M53.55,48.73l3.54,4c-1,.8-1.89,1.56-2.83,2.23A28.34,28.34,0,0,1,9.64,38.14C6.87,24.77,14.89,10.8,28.29,7.4A23.5,23.5,0,0,1,57.54,26.19c1.89,10.47-4.47,21.14-14.43,24.19A19.13,19.13,0,0,1,18.38,35.83C16.73,27.61,22.07,18,31.16,16.11A14.55,14.55,0,0,1,48.51,27c1.54,6.64-2.73,14.93-11.32,15.13-5.47.12-10.43-4.29-9.85-10.11.45-4.39,3.45-7.38,7.6-7.1a5.29,5.29,0,0,1,4.8,3.42,3.16,3.16,0,0,1-1.31,4,3.2,3.2,0,0,1-4.14-1c-.19-.23-.35-.49-.59-.82a2.47,2.47,0,0,0-1.05,2.91c.81,3.15,4.9,4.29,7.78,2.25,4.18-3,3.49-9.43-.07-12.33A10.3,10.3,0,0,0,24.56,28C21,37.05,28.09,45.28,36,45.75c8.74.51,15.08-5.75,16.37-13.64,1.4-8.54-4.74-17.38-13.6-19.52C28.15,10,17.21,17.24,15.06,28a22.27,22.27,0,0,0,18.11,26.7A23.07,23.07,0,0,0,51.83,50C52.38,49.57,52.94,49.18,53.55,48.73Z"/></svg>