<svg id="レイヤー_1" data-name="レイヤー 1" xmlns="http://www.w3.org/2000/svg" viewBox="0 0 66.84 66.84"><defs><style>.cls-1{fill:#bf222d;}.cls-2{fill:#fff;fill-rule:evenodd;}</style></defs><rect class="cls-1" width="66.84" height="66.84" rx="5.76"/><path id="Shape" class="cls-2" d="M13.08,37.36V35.91H8.33l4.75-5.37V29.32H6.21v1.45H10.8L6.05,36.14v1.22Zm5.22.18a4.22,4.22,0,0,0,4.33-4.19v0a4.16,4.16,0,0,0-4.3-4.16A4.21,4.21,0,0,0,14,33.35v0a4.17,4.17,0,0,0,4.29,4.16Zm0-1.54a2.57,2.57,0,0,1-2.55-2.65v0A2.51,2.51,0,0,1,18.3,30.7a2.58,2.58,0,0,1,2.55,2.65v0A2.5,2.5,0,0,1,18.33,36Zm5.87,1.36H26V32.83a1.83,1.83,0,0,1,1.81-2.06c1.06,0,1.69.71,1.69,2v4.61h1.79V32.81a1.79,1.79,0,0,1,1.79-2c1.07,0,1.7.71,1.7,2v4.58h1.78V32.25c0-2-1.08-3.09-2.86-3.09a3.28,3.28,0,0,0-2.75,1.42,2.6,2.6,0,0,0-2.45-1.42A2.91,2.91,0,0,0,26,30.57V29.32H24.2v8Zm17.11-1.13c-.9,0-1.62-.45-1.62-1.26v0c0-.85.72-1.38,2-1.38a5.83,5.83,0,0,1,1.91.32v.59c0,1-1,1.76-2.24,1.76Zm-.47,1.29a3.33,3.33,0,0,0,2.67-1.19v1h1.73V32.58a3.29,3.29,0,0,0-.86-2.47,3.71,3.71,0,0,0-2.68-.9,6.88,6.88,0,0,0-3.05.67l.47,1.37a5.82,5.82,0,0,1,2.34-.49c1.34,0,2.06.63,2.06,1.8v.21a6.73,6.73,0,0,0-2.22-.34c-2,0-3.36.85-3.36,2.58v0c0,1.62,1.38,2.48,2.9,2.48Zm9,0a3.26,3.26,0,0,0,1.64-.39V35.64a2.57,2.57,0,0,1-1.15.28.92.92,0,0,1-1-1v-4h2.22V29.32H49.26V27.09H47.48v2.23h-1v1.52h1v4.32a2.05,2.05,0,0,0,2.33,2.33Zm11-4.14v0a4.31,4.31,0,0,0-8.62,0v0a4.17,4.17,0,0,0,4.29,4.16A4.22,4.22,0,0,0,60.8,33.35ZM56.5,36A2.57,2.57,0,0,1,54,33.35v0a2.51,2.51,0,0,1,2.52-2.62A2.58,2.58,0,0,1,59,33.35v0A2.5,2.5,0,0,1,56.5,36Z"/></svg>